<mxfile host="app.diagrams.net" agent="Mozilla/5.0 (X11; Linux x86_64) AppleWebKit/537.36 (KHTML, like Gecko) Chrome/128.0.0.0 Safari/537.36 Edg/128.0.0.0" version="24.7.13">
  <diagram name="Page-1" id="v7pX340-E1yBxrApcO9W">
    <mxGraphModel dx="3358" dy="1625" grid="0" gridSize="10" guides="1" tooltips="1" connect="1" arrows="1" fold="1" page="0" pageScale="1" pageWidth="827" pageHeight="1169" math="0" shadow="0">
      <root>
        <mxCell id="0" />
        <mxCell id="1" parent="0" />
        <mxCell id="jOgV_od5qk4-MP1on5pw-40" value="&lt;span style=&quot;color: rgb(36, 41, 46); font-family: &amp;quot;Droid Sans Mono&amp;quot;, &amp;quot;monospace&amp;quot;, monospace; font-size: 13px; white-space: pre;&quot;&gt;Invoice&lt;/span&gt;&lt;div&gt;&lt;span style=&quot;color: rgb(36, 41, 46); font-family: &amp;quot;Droid Sans Mono&amp;quot;, &amp;quot;monospace&amp;quot;, monospace; font-size: 13px; white-space: pre;&quot;&gt;Detail&lt;/span&gt;&lt;/div&gt;" style="shape=associativeEntity;whiteSpace=wrap;html=1;align=center;" vertex="1" parent="1">
          <mxGeometry x="923" y="807" width="140" height="60" as="geometry" />
        </mxCell>
        <mxCell id="jOgV_od5qk4-MP1on5pw-38" style="rounded=0;orthogonalLoop=1;jettySize=auto;html=1;exitX=1;exitY=1;exitDx=0;exitDy=0;entryX=0;entryY=0.5;entryDx=0;entryDy=0;" edge="1" parent="1" source="AEynNC8rQp6U_47eMVg7-1" target="jOgV_od5qk4-MP1on5pw-37">
          <mxGeometry relative="1" as="geometry" />
        </mxCell>
        <mxCell id="AEynNC8rQp6U_47eMVg7-1" value="&lt;div style=&quot;color: rgb(36, 41, 46); background-color: rgb(255, 255, 255); font-family: &amp;quot;Droid Sans Mono&amp;quot;, &amp;quot;monospace&amp;quot;, monospace; font-size: 13px; line-height: 18px; white-space: pre;&quot;&gt;Customer&lt;/div&gt;" style="rounded=0;whiteSpace=wrap;html=1;" parent="1" vertex="1">
          <mxGeometry x="228" y="322" width="120" height="60" as="geometry" />
        </mxCell>
        <mxCell id="AEynNC8rQp6U_47eMVg7-13" value="" style="edgeStyle=orthogonalEdgeStyle;rounded=0;orthogonalLoop=1;jettySize=auto;html=1;endArrow=none;endFill=0;" parent="1" source="AEynNC8rQp6U_47eMVg7-6" target="AEynNC8rQp6U_47eMVg7-1" edge="1">
          <mxGeometry relative="1" as="geometry" />
        </mxCell>
        <mxCell id="AEynNC8rQp6U_47eMVg7-6" value="Phone #" style="ellipse;whiteSpace=wrap;html=1;" parent="1" vertex="1">
          <mxGeometry x="29" y="312" width="120" height="80" as="geometry" />
        </mxCell>
        <mxCell id="AEynNC8rQp6U_47eMVg7-15" style="edgeStyle=orthogonalEdgeStyle;rounded=0;orthogonalLoop=1;jettySize=auto;html=1;exitX=1;exitY=0.5;exitDx=0;exitDy=0;entryX=0;entryY=0.5;entryDx=0;entryDy=0;endArrow=none;endFill=0;" parent="1" source="AEynNC8rQp6U_47eMVg7-8" target="AEynNC8rQp6U_47eMVg7-1" edge="1">
          <mxGeometry relative="1" as="geometry" />
        </mxCell>
        <mxCell id="AEynNC8rQp6U_47eMVg7-8" value="Name" style="ellipse;whiteSpace=wrap;html=1;" parent="1" vertex="1">
          <mxGeometry x="29" y="220" width="120" height="80" as="geometry" />
        </mxCell>
        <mxCell id="AEynNC8rQp6U_47eMVg7-14" style="edgeStyle=orthogonalEdgeStyle;rounded=0;orthogonalLoop=1;jettySize=auto;html=1;exitX=1;exitY=0.5;exitDx=0;exitDy=0;entryX=0;entryY=0.5;entryDx=0;entryDy=0;endArrow=none;endFill=0;" parent="1" source="AEynNC8rQp6U_47eMVg7-9" target="AEynNC8rQp6U_47eMVg7-1" edge="1">
          <mxGeometry relative="1" as="geometry" />
        </mxCell>
        <mxCell id="AEynNC8rQp6U_47eMVg7-9" value="ID" style="ellipse;whiteSpace=wrap;html=1;" parent="1" vertex="1">
          <mxGeometry x="29" y="128" width="120" height="80" as="geometry" />
        </mxCell>
        <mxCell id="AEynNC8rQp6U_47eMVg7-16" style="edgeStyle=orthogonalEdgeStyle;rounded=0;orthogonalLoop=1;jettySize=auto;html=1;exitX=1;exitY=0.5;exitDx=0;exitDy=0;entryX=0;entryY=0.5;entryDx=0;entryDy=0;endArrow=none;endFill=0;" parent="1" source="AEynNC8rQp6U_47eMVg7-10" target="AEynNC8rQp6U_47eMVg7-1" edge="1">
          <mxGeometry relative="1" as="geometry" />
        </mxCell>
        <mxCell id="AEynNC8rQp6U_47eMVg7-10" value="Email" style="ellipse;whiteSpace=wrap;html=1;" parent="1" vertex="1">
          <mxGeometry x="29" y="404" width="120" height="80" as="geometry" />
        </mxCell>
        <mxCell id="AEynNC8rQp6U_47eMVg7-18" style="edgeStyle=orthogonalEdgeStyle;rounded=0;orthogonalLoop=1;jettySize=auto;html=1;exitX=1;exitY=0.5;exitDx=0;exitDy=0;entryX=0;entryY=0.5;entryDx=0;entryDy=0;endArrow=none;endFill=0;" parent="1" source="AEynNC8rQp6U_47eMVg7-12" target="AEynNC8rQp6U_47eMVg7-1" edge="1">
          <mxGeometry relative="1" as="geometry" />
        </mxCell>
        <mxCell id="AEynNC8rQp6U_47eMVg7-12" value="Address" style="ellipse;whiteSpace=wrap;html=1;" parent="1" vertex="1">
          <mxGeometry x="29" y="496" width="120" height="80" as="geometry" />
        </mxCell>
        <mxCell id="jOgV_od5qk4-MP1on5pw-39" style="rounded=0;orthogonalLoop=1;jettySize=auto;html=1;exitX=0;exitY=1;exitDx=0;exitDy=0;entryX=1;entryY=0.5;entryDx=0;entryDy=0;startArrow=classic;startFill=1;endArrow=none;endFill=0;" edge="1" parent="1" source="AEynNC8rQp6U_47eMVg7-41" target="jOgV_od5qk4-MP1on5pw-37">
          <mxGeometry relative="1" as="geometry" />
        </mxCell>
        <mxCell id="AEynNC8rQp6U_47eMVg7-41" value="&lt;div style=&quot;color: rgb(36, 41, 46); background-color: rgb(255, 255, 255); font-family: &amp;quot;Droid Sans Mono&amp;quot;, &amp;quot;monospace&amp;quot;, monospace; font-size: 13px; line-height: 18px; white-space: pre;&quot;&gt;Invoice&lt;/div&gt;" style="rounded=0;whiteSpace=wrap;html=1;direction=east;" parent="1" vertex="1">
          <mxGeometry x="933" y="322" width="120" height="60" as="geometry" />
        </mxCell>
        <mxCell id="AEynNC8rQp6U_47eMVg7-92" style="edgeStyle=orthogonalEdgeStyle;rounded=0;orthogonalLoop=1;jettySize=auto;html=1;exitX=0;exitY=0.5;exitDx=0;exitDy=0;entryX=1;entryY=0.5;entryDx=0;entryDy=0;endArrow=none;endFill=0;" parent="1" source="AEynNC8rQp6U_47eMVg7-45" target="AEynNC8rQp6U_47eMVg7-41" edge="1">
          <mxGeometry relative="1" as="geometry" />
        </mxCell>
        <mxCell id="AEynNC8rQp6U_47eMVg7-45" value="Date" style="ellipse;whiteSpace=wrap;html=1;direction=east;" parent="1" vertex="1">
          <mxGeometry x="1132" y="312" width="120" height="80" as="geometry" />
        </mxCell>
        <mxCell id="AEynNC8rQp6U_47eMVg7-93" style="edgeStyle=orthogonalEdgeStyle;rounded=0;orthogonalLoop=1;jettySize=auto;html=1;exitX=0;exitY=0.5;exitDx=0;exitDy=0;entryX=1;entryY=0.5;entryDx=0;entryDy=0;endArrow=none;endFill=0;" parent="1" source="AEynNC8rQp6U_47eMVg7-47" target="AEynNC8rQp6U_47eMVg7-41" edge="1">
          <mxGeometry relative="1" as="geometry" />
        </mxCell>
        <mxCell id="AEynNC8rQp6U_47eMVg7-47" value="Number" style="ellipse;whiteSpace=wrap;html=1;direction=east;" parent="1" vertex="1">
          <mxGeometry x="1132" y="220" width="120" height="80" as="geometry" />
        </mxCell>
        <mxCell id="AEynNC8rQp6U_47eMVg7-89" style="edgeStyle=orthogonalEdgeStyle;rounded=0;orthogonalLoop=1;jettySize=auto;html=1;exitX=0;exitY=0.5;exitDx=0;exitDy=0;entryX=1;entryY=0.5;entryDx=0;entryDy=0;endArrow=none;endFill=0;" parent="1" source="AEynNC8rQp6U_47eMVg7-49" target="AEynNC8rQp6U_47eMVg7-41" edge="1">
          <mxGeometry relative="1" as="geometry" />
        </mxCell>
        <mxCell id="AEynNC8rQp6U_47eMVg7-49" value="Total" style="ellipse;whiteSpace=wrap;html=1;dashed=1;dashPattern=8 8;direction=east;" parent="1" vertex="1">
          <mxGeometry x="1132" y="402" width="120" height="80" as="geometry" />
        </mxCell>
        <mxCell id="AEynNC8rQp6U_47eMVg7-104" style="edgeStyle=orthogonalEdgeStyle;rounded=0;orthogonalLoop=1;jettySize=auto;html=1;exitX=0.5;exitY=1;exitDx=0;exitDy=0;endArrow=none;endFill=0;entryX=0.5;entryY=0;entryDx=0;entryDy=0;" parent="1" source="AEynNC8rQp6U_47eMVg7-69" edge="1">
          <mxGeometry relative="1" as="geometry">
            <mxPoint x="640" y="322" as="targetPoint" />
          </mxGeometry>
        </mxCell>
        <mxCell id="AEynNC8rQp6U_47eMVg7-69" value="Phone Number" style="ellipse;whiteSpace=wrap;html=1;" parent="1" vertex="1">
          <mxGeometry x="641" y="129" width="120" height="80" as="geometry" />
        </mxCell>
        <mxCell id="AEynNC8rQp6U_47eMVg7-103" style="edgeStyle=orthogonalEdgeStyle;rounded=0;orthogonalLoop=1;jettySize=auto;html=1;exitX=0.5;exitY=1;exitDx=0;exitDy=0;entryX=0.5;entryY=0;entryDx=0;entryDy=0;endArrow=none;endFill=0;" parent="1" source="AEynNC8rQp6U_47eMVg7-71" edge="1">
          <mxGeometry relative="1" as="geometry">
            <mxPoint x="640" y="322" as="targetPoint" />
          </mxGeometry>
        </mxCell>
        <mxCell id="AEynNC8rQp6U_47eMVg7-71" value="Name" style="ellipse;whiteSpace=wrap;html=1;" parent="1" vertex="1">
          <mxGeometry x="512" y="129" width="120" height="80" as="geometry" />
        </mxCell>
        <mxCell id="AEynNC8rQp6U_47eMVg7-102" style="edgeStyle=orthogonalEdgeStyle;rounded=0;orthogonalLoop=1;jettySize=auto;html=1;exitX=0.5;exitY=1;exitDx=0;exitDy=0;entryX=0.5;entryY=0;entryDx=0;entryDy=0;endArrow=none;endFill=0;" parent="1" source="AEynNC8rQp6U_47eMVg7-73" edge="1">
          <mxGeometry relative="1" as="geometry">
            <mxPoint x="640" y="322" as="targetPoint" />
          </mxGeometry>
        </mxCell>
        <mxCell id="AEynNC8rQp6U_47eMVg7-73" value="CustomerID" style="ellipse;whiteSpace=wrap;html=1;" parent="1" vertex="1">
          <mxGeometry x="383" y="129" width="120" height="80" as="geometry" />
        </mxCell>
        <mxCell id="AEynNC8rQp6U_47eMVg7-105" style="edgeStyle=orthogonalEdgeStyle;rounded=0;orthogonalLoop=1;jettySize=auto;html=1;exitX=0.5;exitY=1;exitDx=0;exitDy=0;endArrow=none;endFill=0;entryX=0.5;entryY=0;entryDx=0;entryDy=0;" parent="1" source="AEynNC8rQp6U_47eMVg7-75" edge="1">
          <mxGeometry relative="1" as="geometry">
            <mxPoint x="640" y="322" as="targetPoint" />
          </mxGeometry>
        </mxCell>
        <mxCell id="AEynNC8rQp6U_47eMVg7-75" value="Email" style="ellipse;whiteSpace=wrap;html=1;" parent="1" vertex="1">
          <mxGeometry x="770" y="129" width="120" height="80" as="geometry" />
        </mxCell>
        <mxCell id="AEynNC8rQp6U_47eMVg7-100" style="edgeStyle=orthogonalEdgeStyle;rounded=0;orthogonalLoop=1;jettySize=auto;html=1;exitX=0.5;exitY=1;exitDx=0;exitDy=0;entryX=0.5;entryY=0;entryDx=0;entryDy=0;endArrow=none;endFill=0;" parent="1" source="AEynNC8rQp6U_47eMVg7-77" edge="1">
          <mxGeometry relative="1" as="geometry">
            <mxPoint x="640" y="322" as="targetPoint" />
          </mxGeometry>
        </mxCell>
        <mxCell id="AEynNC8rQp6U_47eMVg7-77" value="Invoice Number" style="ellipse;whiteSpace=wrap;html=1;" parent="1" vertex="1">
          <mxGeometry x="254" y="129" width="120" height="80" as="geometry" />
        </mxCell>
        <mxCell id="AEynNC8rQp6U_47eMVg7-106" style="edgeStyle=orthogonalEdgeStyle;rounded=0;orthogonalLoop=1;jettySize=auto;html=1;exitX=0.5;exitY=1;exitDx=0;exitDy=0;entryX=0.5;entryY=0;entryDx=0;entryDy=0;endArrow=none;endFill=0;" parent="1" source="AEynNC8rQp6U_47eMVg7-79" target="AEynNC8rQp6U_47eMVg7-164" edge="1">
          <mxGeometry relative="1" as="geometry">
            <mxPoint x="640" y="322" as="targetPoint" />
          </mxGeometry>
        </mxCell>
        <mxCell id="AEynNC8rQp6U_47eMVg7-79" value="Address" style="ellipse;whiteSpace=wrap;html=1;" parent="1" vertex="1">
          <mxGeometry x="899" y="129" width="120" height="80" as="geometry" />
        </mxCell>
        <mxCell id="AEynNC8rQp6U_47eMVg7-124" style="edgeStyle=orthogonalEdgeStyle;rounded=0;orthogonalLoop=1;jettySize=auto;html=1;exitX=0;exitY=0.5;exitDx=0;exitDy=0;endArrow=none;endFill=0;entryX=1;entryY=0.5;entryDx=0;entryDy=0;" parent="1" source="AEynNC8rQp6U_47eMVg7-52" target="jOgV_od5qk4-MP1on5pw-40" edge="1">
          <mxGeometry relative="1" as="geometry">
            <mxPoint x="1117" y="850" as="targetPoint" />
          </mxGeometry>
        </mxCell>
        <mxCell id="AEynNC8rQp6U_47eMVg7-52" value="Discount" style="ellipse;whiteSpace=wrap;html=1;" parent="1" vertex="1">
          <mxGeometry x="1132" y="842" width="120" height="80" as="geometry" />
        </mxCell>
        <mxCell id="AEynNC8rQp6U_47eMVg7-125" style="edgeStyle=orthogonalEdgeStyle;rounded=0;orthogonalLoop=1;jettySize=auto;html=1;exitX=0;exitY=0.5;exitDx=0;exitDy=0;endArrow=none;endFill=0;entryX=1;entryY=0.5;entryDx=0;entryDy=0;" parent="1" source="AEynNC8rQp6U_47eMVg7-54" target="jOgV_od5qk4-MP1on5pw-40" edge="1">
          <mxGeometry relative="1" as="geometry">
            <mxPoint x="1087" y="848" as="targetPoint" />
          </mxGeometry>
        </mxCell>
        <mxCell id="AEynNC8rQp6U_47eMVg7-54" value="Quantity" style="ellipse;whiteSpace=wrap;html=1;" parent="1" vertex="1">
          <mxGeometry x="1132" y="750" width="120" height="80" as="geometry" />
        </mxCell>
        <mxCell id="AEynNC8rQp6U_47eMVg7-126" style="edgeStyle=orthogonalEdgeStyle;rounded=0;orthogonalLoop=1;jettySize=auto;html=1;exitX=0;exitY=0.5;exitDx=0;exitDy=0;endArrow=none;endFill=0;entryX=1;entryY=0.5;entryDx=0;entryDy=0;" parent="1" source="AEynNC8rQp6U_47eMVg7-56" target="jOgV_od5qk4-MP1on5pw-40" edge="1">
          <mxGeometry relative="1" as="geometry">
            <mxPoint x="1095" y="844" as="targetPoint" />
          </mxGeometry>
        </mxCell>
        <mxCell id="AEynNC8rQp6U_47eMVg7-56" value="ProductID" style="ellipse;whiteSpace=wrap;html=1;" parent="1" vertex="1">
          <mxGeometry x="1132" y="658" width="120" height="80" as="geometry" />
        </mxCell>
        <mxCell id="AEynNC8rQp6U_47eMVg7-123" style="edgeStyle=orthogonalEdgeStyle;rounded=0;orthogonalLoop=1;jettySize=auto;html=1;exitX=0;exitY=0.5;exitDx=0;exitDy=0;endArrow=none;endFill=0;entryX=1;entryY=0.5;entryDx=0;entryDy=0;" parent="1" source="AEynNC8rQp6U_47eMVg7-58" target="jOgV_od5qk4-MP1on5pw-40" edge="1">
          <mxGeometry relative="1" as="geometry">
            <mxPoint x="1080" y="858" as="targetPoint" />
          </mxGeometry>
        </mxCell>
        <mxCell id="AEynNC8rQp6U_47eMVg7-58" value="Unit Price" style="ellipse;whiteSpace=wrap;html=1;" parent="1" vertex="1">
          <mxGeometry x="1132" y="934" width="120" height="80" as="geometry" />
        </mxCell>
        <mxCell id="AEynNC8rQp6U_47eMVg7-127" style="edgeStyle=orthogonalEdgeStyle;rounded=0;orthogonalLoop=1;jettySize=auto;html=1;exitX=0;exitY=0.5;exitDx=0;exitDy=0;entryX=1;entryY=0.5;entryDx=0;entryDy=0;endArrow=none;endFill=0;" parent="1" source="AEynNC8rQp6U_47eMVg7-62" target="jOgV_od5qk4-MP1on5pw-40" edge="1">
          <mxGeometry relative="1" as="geometry">
            <mxPoint x="1059" y="837" as="targetPoint" />
          </mxGeometry>
        </mxCell>
        <mxCell id="AEynNC8rQp6U_47eMVg7-62" value="Invoice Number" style="ellipse;whiteSpace=wrap;html=1;" parent="1" vertex="1">
          <mxGeometry x="1132" y="566" width="120" height="80" as="geometry" />
        </mxCell>
        <mxCell id="AEynNC8rQp6U_47eMVg7-122" style="edgeStyle=orthogonalEdgeStyle;rounded=0;orthogonalLoop=1;jettySize=auto;html=1;exitX=0;exitY=0.5;exitDx=0;exitDy=0;endArrow=none;endFill=0;entryX=1;entryY=0.5;entryDx=0;entryDy=0;" parent="1" source="AEynNC8rQp6U_47eMVg7-64" target="jOgV_od5qk4-MP1on5pw-40" edge="1">
          <mxGeometry relative="1" as="geometry">
            <mxPoint x="1089" y="847" as="targetPoint" />
          </mxGeometry>
        </mxCell>
        <mxCell id="AEynNC8rQp6U_47eMVg7-64" value="Amount" style="ellipse;whiteSpace=wrap;html=1;dashed=1;dashPattern=8 8;" parent="1" vertex="1">
          <mxGeometry x="1132" y="1026" width="120" height="80" as="geometry" />
        </mxCell>
        <mxCell id="AEynNC8rQp6U_47eMVg7-19" value="&lt;div style=&quot;color: rgb(36, 41, 46); background-color: rgb(255, 255, 255); font-family: &amp;quot;Droid Sans Mono&amp;quot;, &amp;quot;monospace&amp;quot;, monospace; font-size: 13px; line-height: 18px; white-space: pre;&quot;&gt;Category&lt;/div&gt;" style="rounded=0;whiteSpace=wrap;html=1;" parent="1" vertex="1">
          <mxGeometry x="228" y="807" width="120" height="60" as="geometry" />
        </mxCell>
        <mxCell id="AEynNC8rQp6U_47eMVg7-120" style="edgeStyle=orthogonalEdgeStyle;rounded=0;orthogonalLoop=1;jettySize=auto;html=1;exitX=1;exitY=0.5;exitDx=0;exitDy=0;entryX=0;entryY=0.5;entryDx=0;entryDy=0;endArrow=none;endFill=0;" parent="1" source="AEynNC8rQp6U_47eMVg7-21" target="AEynNC8rQp6U_47eMVg7-19" edge="1">
          <mxGeometry relative="1" as="geometry" />
        </mxCell>
        <mxCell id="AEynNC8rQp6U_47eMVg7-21" value="Name" style="ellipse;whiteSpace=wrap;html=1;" parent="1" vertex="1">
          <mxGeometry x="29" y="842" width="120" height="80" as="geometry" />
        </mxCell>
        <mxCell id="AEynNC8rQp6U_47eMVg7-119" style="edgeStyle=orthogonalEdgeStyle;rounded=0;orthogonalLoop=1;jettySize=auto;html=1;exitX=1;exitY=0.5;exitDx=0;exitDy=0;entryX=0;entryY=0.5;entryDx=0;entryDy=0;endArrow=none;endFill=0;" parent="1" source="AEynNC8rQp6U_47eMVg7-23" target="AEynNC8rQp6U_47eMVg7-19" edge="1">
          <mxGeometry relative="1" as="geometry" />
        </mxCell>
        <mxCell id="AEynNC8rQp6U_47eMVg7-23" value="ID" style="ellipse;whiteSpace=wrap;html=1;" parent="1" vertex="1">
          <mxGeometry x="29" y="750" width="120" height="80" as="geometry" />
        </mxCell>
        <mxCell id="AEynNC8rQp6U_47eMVg7-133" value="" style="fontSize=12;html=1;endArrow=ERoneToMany;rounded=0;exitX=0.5;exitY=1;exitDx=0;exitDy=0;entryX=0.5;entryY=0;entryDx=0;entryDy=0;" parent="1" source="AEynNC8rQp6U_47eMVg7-41" target="jOgV_od5qk4-MP1on5pw-40" edge="1">
          <mxGeometry width="100" height="100" relative="1" as="geometry">
            <mxPoint x="860" y="366" as="sourcePoint" />
            <mxPoint x="957" y="772" as="targetPoint" />
          </mxGeometry>
        </mxCell>
        <mxCell id="AEynNC8rQp6U_47eMVg7-134" value="" style="fontSize=12;html=1;endArrow=ERoneToMany;rounded=0;entryX=0;entryY=0.5;entryDx=0;entryDy=0;exitX=1;exitY=0.5;exitDx=0;exitDy=0;entryPerimeter=0;" parent="1" source="AEynNC8rQp6U_47eMVg7-1" target="AEynNC8rQp6U_47eMVg7-164" edge="1">
          <mxGeometry width="100" height="100" relative="1" as="geometry">
            <mxPoint x="574" y="357" as="sourcePoint" />
            <mxPoint x="570" y="352" as="targetPoint" />
          </mxGeometry>
        </mxCell>
        <mxCell id="AEynNC8rQp6U_47eMVg7-136" value="" style="fontSize=12;html=1;endArrow=ERmandOne;startArrow=ERmandOne;rounded=0;exitX=1;exitY=0.5;exitDx=0;exitDy=0;entryX=0;entryY=0.5;entryDx=0;entryDy=0;" parent="1" source="AEynNC8rQp6U_47eMVg7-164" target="AEynNC8rQp6U_47eMVg7-41" edge="1">
          <mxGeometry width="100" height="100" relative="1" as="geometry">
            <mxPoint x="710" y="352" as="sourcePoint" />
            <mxPoint x="827" y="447" as="targetPoint" />
          </mxGeometry>
        </mxCell>
        <mxCell id="AEynNC8rQp6U_47eMVg7-160" style="edgeStyle=orthogonalEdgeStyle;rounded=0;orthogonalLoop=1;jettySize=auto;html=1;exitX=0.5;exitY=0;exitDx=0;exitDy=0;entryX=0.5;entryY=1;entryDx=0;entryDy=0;endArrow=none;endFill=0;" parent="1" source="AEynNC8rQp6U_47eMVg7-148" target="AEynNC8rQp6U_47eMVg7-157" edge="1">
          <mxGeometry relative="1" as="geometry" />
        </mxCell>
        <mxCell id="AEynNC8rQp6U_47eMVg7-148" value="Category ID" style="ellipse;whiteSpace=wrap;html=1;" parent="1" vertex="1">
          <mxGeometry x="556" y="980" width="120" height="80" as="geometry" />
        </mxCell>
        <mxCell id="AEynNC8rQp6U_47eMVg7-159" style="edgeStyle=orthogonalEdgeStyle;rounded=0;orthogonalLoop=1;jettySize=auto;html=1;exitX=0.5;exitY=0;exitDx=0;exitDy=0;entryX=0.5;entryY=1;entryDx=0;entryDy=0;endArrow=none;endFill=0;" parent="1" source="AEynNC8rQp6U_47eMVg7-150" target="AEynNC8rQp6U_47eMVg7-157" edge="1">
          <mxGeometry relative="1" as="geometry" />
        </mxCell>
        <mxCell id="AEynNC8rQp6U_47eMVg7-150" value="Name" style="ellipse;whiteSpace=wrap;html=1;" parent="1" vertex="1">
          <mxGeometry x="427" y="980" width="120" height="80" as="geometry" />
        </mxCell>
        <mxCell id="AEynNC8rQp6U_47eMVg7-158" style="edgeStyle=orthogonalEdgeStyle;rounded=0;orthogonalLoop=1;jettySize=auto;html=1;exitX=0.5;exitY=0;exitDx=0;exitDy=0;entryX=0.5;entryY=1;entryDx=0;entryDy=0;endArrow=none;endFill=0;" parent="1" source="AEynNC8rQp6U_47eMVg7-152" target="AEynNC8rQp6U_47eMVg7-157" edge="1">
          <mxGeometry relative="1" as="geometry" />
        </mxCell>
        <mxCell id="AEynNC8rQp6U_47eMVg7-152" value="ID" style="ellipse;whiteSpace=wrap;html=1;" parent="1" vertex="1">
          <mxGeometry x="298" y="980" width="120" height="80" as="geometry" />
        </mxCell>
        <mxCell id="AEynNC8rQp6U_47eMVg7-161" style="edgeStyle=orthogonalEdgeStyle;rounded=0;orthogonalLoop=1;jettySize=auto;html=1;exitX=0.5;exitY=0;exitDx=0;exitDy=0;entryX=0.5;entryY=1;entryDx=0;entryDy=0;endArrow=none;endFill=0;" parent="1" source="AEynNC8rQp6U_47eMVg7-154" target="AEynNC8rQp6U_47eMVg7-157" edge="1">
          <mxGeometry relative="1" as="geometry" />
        </mxCell>
        <mxCell id="AEynNC8rQp6U_47eMVg7-154" value="Unit Price" style="ellipse;whiteSpace=wrap;html=1;" parent="1" vertex="1">
          <mxGeometry x="685" y="980" width="120" height="80" as="geometry" />
        </mxCell>
        <mxCell id="AEynNC8rQp6U_47eMVg7-157" value="&lt;div style=&quot;color: rgb(36, 41, 46); background-color: rgb(255, 255, 255); font-family: &amp;quot;Droid Sans Mono&amp;quot;, &amp;quot;monospace&amp;quot;, monospace; font-size: 13px; line-height: 18px; white-space: pre;&quot;&gt;Product&lt;/div&gt;" style="rounded=0;whiteSpace=wrap;html=1;" parent="1" vertex="1">
          <mxGeometry x="556" y="807" width="120" height="60" as="geometry" />
        </mxCell>
        <mxCell id="AEynNC8rQp6U_47eMVg7-164" value="&lt;span style=&quot;color: rgb(36, 41, 46); font-family: &amp;quot;Droid Sans Mono&amp;quot;, &amp;quot;monospace&amp;quot;, monospace; font-size: 13px; white-space: pre;&quot;&gt;Invoice&lt;/span&gt;&lt;div&gt;&lt;span style=&quot;color: rgb(36, 41, 46); font-family: &amp;quot;Droid Sans Mono&amp;quot;, &amp;quot;monospace&amp;quot;, monospace; font-size: 13px; white-space: pre;&quot;&gt;Customer&lt;/span&gt;&lt;/div&gt;" style="shape=ext;margin=3;double=1;whiteSpace=wrap;html=1;align=center;" parent="1" vertex="1">
          <mxGeometry x="574" y="322" width="132" height="60" as="geometry" />
        </mxCell>
        <mxCell id="AEynNC8rQp6U_47eMVg7-165" value="" style="fontSize=12;html=1;endArrow=ERoneToMany;rounded=0;exitX=1;exitY=0.5;exitDx=0;exitDy=0;entryX=0;entryY=0.5;entryDx=0;entryDy=0;" parent="1" source="AEynNC8rQp6U_47eMVg7-19" target="AEynNC8rQp6U_47eMVg7-157" edge="1">
          <mxGeometry width="100" height="100" relative="1" as="geometry">
            <mxPoint x="482" y="711" as="sourcePoint" />
            <mxPoint x="582" y="611" as="targetPoint" />
          </mxGeometry>
        </mxCell>
        <mxCell id="AEynNC8rQp6U_47eMVg7-166" value="" style="fontSize=12;html=1;endArrow=ERoneToMany;rounded=0;exitX=1;exitY=0.5;exitDx=0;exitDy=0;entryX=0;entryY=0.5;entryDx=0;entryDy=0;" parent="1" source="AEynNC8rQp6U_47eMVg7-157" target="jOgV_od5qk4-MP1on5pw-40" edge="1">
          <mxGeometry width="100" height="100" relative="1" as="geometry">
            <mxPoint x="710" y="865.95" as="sourcePoint" />
            <mxPoint x="886" y="851" as="targetPoint" />
          </mxGeometry>
        </mxCell>
        <mxCell id="AEynNC8rQp6U_47eMVg7-169" style="edgeStyle=orthogonalEdgeStyle;rounded=0;orthogonalLoop=1;jettySize=auto;html=1;exitX=0.5;exitY=0;exitDx=0;exitDy=0;entryX=0.5;entryY=1;entryDx=0;entryDy=0;endArrow=none;endFill=0;" parent="1" source="AEynNC8rQp6U_47eMVg7-167" target="AEynNC8rQp6U_47eMVg7-157" edge="1">
          <mxGeometry relative="1" as="geometry" />
        </mxCell>
        <mxCell id="AEynNC8rQp6U_47eMVg7-167" value="Discount" style="ellipse;whiteSpace=wrap;html=1;" parent="1" vertex="1">
          <mxGeometry x="814" y="980" width="120" height="80" as="geometry" />
        </mxCell>
        <mxCell id="9n74j1pBVIIbqsj0Nm12-8" style="edgeStyle=orthogonalEdgeStyle;rounded=0;orthogonalLoop=1;jettySize=auto;html=1;exitX=0;exitY=0.5;exitDx=0;exitDy=0;entryX=1;entryY=0.5;entryDx=0;entryDy=0;endArrow=none;endFill=0;" parent="1" source="9n74j1pBVIIbqsj0Nm12-9" target="9n74j1pBVIIbqsj0Nm12-16" edge="1">
          <mxGeometry relative="1" as="geometry">
            <mxPoint x="2903" y="487" as="targetPoint" />
          </mxGeometry>
        </mxCell>
        <mxCell id="9n74j1pBVIIbqsj0Nm12-9" value="TechScore" style="ellipse;whiteSpace=wrap;html=1;" parent="1" vertex="1">
          <mxGeometry x="2982" y="492" width="120" height="80" as="geometry" />
        </mxCell>
        <mxCell id="9n74j1pBVIIbqsj0Nm12-10" style="edgeStyle=orthogonalEdgeStyle;rounded=0;orthogonalLoop=1;jettySize=auto;html=1;exitX=0;exitY=0.5;exitDx=0;exitDy=0;endArrow=none;endFill=0;entryX=1;entryY=0.5;entryDx=0;entryDy=0;" parent="1" source="9n74j1pBVIIbqsj0Nm12-11" target="9n74j1pBVIIbqsj0Nm12-16" edge="1">
          <mxGeometry relative="1" as="geometry">
            <mxPoint x="2903" y="487.0370370370367" as="targetPoint" />
          </mxGeometry>
        </mxCell>
        <mxCell id="9n74j1pBVIIbqsj0Nm12-11" value="EnglishScore" style="ellipse;whiteSpace=wrap;html=1;" parent="1" vertex="1">
          <mxGeometry x="2982" y="400" width="120" height="80" as="geometry" />
        </mxCell>
        <mxCell id="9n74j1pBVIIbqsj0Nm12-12" style="edgeStyle=orthogonalEdgeStyle;rounded=0;orthogonalLoop=1;jettySize=auto;html=1;exitX=0;exitY=0.5;exitDx=0;exitDy=0;entryX=1;entryY=0.5;entryDx=0;entryDy=0;endArrow=none;endFill=0;" parent="1" source="9n74j1pBVIIbqsj0Nm12-13" target="9n74j1pBVIIbqsj0Nm12-16" edge="1">
          <mxGeometry relative="1" as="geometry">
            <mxPoint x="2903" y="487" as="targetPoint" />
          </mxGeometry>
        </mxCell>
        <mxCell id="9n74j1pBVIIbqsj0Nm12-13" value="TraineeID" style="ellipse;whiteSpace=wrap;html=1;" parent="1" vertex="1">
          <mxGeometry x="2982" y="308" width="120" height="80" as="geometry" />
        </mxCell>
        <mxCell id="9n74j1pBVIIbqsj0Nm12-14" style="edgeStyle=orthogonalEdgeStyle;rounded=0;orthogonalLoop=1;jettySize=auto;html=1;exitX=0;exitY=0.5;exitDx=0;exitDy=0;entryX=1;entryY=0.5;entryDx=0;entryDy=0;endArrow=none;endFill=0;" parent="1" source="9n74j1pBVIIbqsj0Nm12-15" target="9n74j1pBVIIbqsj0Nm12-16" edge="1">
          <mxGeometry relative="1" as="geometry">
            <mxPoint x="2903" y="487" as="targetPoint" />
          </mxGeometry>
        </mxCell>
        <mxCell id="9n74j1pBVIIbqsj0Nm12-15" value="InterviewScore" style="ellipse;whiteSpace=wrap;html=1;" parent="1" vertex="1">
          <mxGeometry x="2982" y="584" width="120" height="80" as="geometry" />
        </mxCell>
        <mxCell id="9n74j1pBVIIbqsj0Nm12-16" value="&lt;font face=&quot;Droid Sans Mono, monospace, monospace&quot; color=&quot;#24292e&quot;&gt;&lt;span style=&quot;font-size: 13px; white-space: pre;&quot;&gt;ETScore&lt;/span&gt;&lt;/font&gt;" style="shape=ext;margin=3;double=1;whiteSpace=wrap;html=1;align=center;" parent="1" vertex="1">
          <mxGeometry x="2777" y="457" width="132" height="60" as="geometry" />
        </mxCell>
        <mxCell id="9n74j1pBVIIbqsj0Nm12-17" value="&lt;div style=&quot;color: rgb(36, 41, 46); background-color: rgb(255, 255, 255); font-family: &amp;quot;Droid Sans Mono&amp;quot;, &amp;quot;monospace&amp;quot;, monospace; font-size: 13px; line-height: 18px; white-space: pre;&quot;&gt;Class&lt;/div&gt;" style="rounded=0;whiteSpace=wrap;html=1;" parent="1" vertex="1">
          <mxGeometry x="2332" y="831" width="120" height="60" as="geometry" />
        </mxCell>
        <mxCell id="9n74j1pBVIIbqsj0Nm12-18" value="" style="edgeStyle=orthogonalEdgeStyle;rounded=0;orthogonalLoop=1;jettySize=auto;html=1;endArrow=none;endFill=0;" parent="1" source="9n74j1pBVIIbqsj0Nm12-19" target="9n74j1pBVIIbqsj0Nm12-17" edge="1">
          <mxGeometry relative="1" as="geometry" />
        </mxCell>
        <mxCell id="9n74j1pBVIIbqsj0Nm12-19" value="StartDate" style="ellipse;whiteSpace=wrap;html=1;" parent="1" vertex="1">
          <mxGeometry x="2133" y="821" width="120" height="80" as="geometry" />
        </mxCell>
        <mxCell id="9n74j1pBVIIbqsj0Nm12-20" style="edgeStyle=orthogonalEdgeStyle;rounded=0;orthogonalLoop=1;jettySize=auto;html=1;exitX=1;exitY=0.5;exitDx=0;exitDy=0;entryX=0;entryY=0.5;entryDx=0;entryDy=0;endArrow=none;endFill=0;" parent="1" source="9n74j1pBVIIbqsj0Nm12-21" target="9n74j1pBVIIbqsj0Nm12-17" edge="1">
          <mxGeometry relative="1" as="geometry" />
        </mxCell>
        <mxCell id="9n74j1pBVIIbqsj0Nm12-21" value="ClassCode" style="ellipse;whiteSpace=wrap;html=1;" parent="1" vertex="1">
          <mxGeometry x="2133" y="729" width="120" height="80" as="geometry" />
        </mxCell>
        <mxCell id="9n74j1pBVIIbqsj0Nm12-22" style="edgeStyle=orthogonalEdgeStyle;rounded=0;orthogonalLoop=1;jettySize=auto;html=1;exitX=1;exitY=0.5;exitDx=0;exitDy=0;entryX=0;entryY=0.5;entryDx=0;entryDy=0;endArrow=none;endFill=0;" parent="1" source="9n74j1pBVIIbqsj0Nm12-23" target="9n74j1pBVIIbqsj0Nm12-17" edge="1">
          <mxGeometry relative="1" as="geometry" />
        </mxCell>
        <mxCell id="9n74j1pBVIIbqsj0Nm12-23" value="ClassID" style="ellipse;whiteSpace=wrap;html=1;" parent="1" vertex="1">
          <mxGeometry x="2133" y="637" width="120" height="80" as="geometry" />
        </mxCell>
        <mxCell id="9n74j1pBVIIbqsj0Nm12-24" style="edgeStyle=orthogonalEdgeStyle;rounded=0;orthogonalLoop=1;jettySize=auto;html=1;exitX=1;exitY=0.5;exitDx=0;exitDy=0;entryX=0;entryY=0.5;entryDx=0;entryDy=0;endArrow=none;endFill=0;" parent="1" source="9n74j1pBVIIbqsj0Nm12-25" target="9n74j1pBVIIbqsj0Nm12-17" edge="1">
          <mxGeometry relative="1" as="geometry" />
        </mxCell>
        <mxCell id="9n74j1pBVIIbqsj0Nm12-25" value="EndDate" style="ellipse;whiteSpace=wrap;html=1;" parent="1" vertex="1">
          <mxGeometry x="2133" y="913" width="120" height="80" as="geometry" />
        </mxCell>
        <mxCell id="9n74j1pBVIIbqsj0Nm12-26" style="edgeStyle=orthogonalEdgeStyle;rounded=0;orthogonalLoop=1;jettySize=auto;html=1;exitX=1;exitY=0.5;exitDx=0;exitDy=0;entryX=0;entryY=0.5;entryDx=0;entryDy=0;endArrow=none;endFill=0;" parent="1" source="9n74j1pBVIIbqsj0Nm12-27" target="9n74j1pBVIIbqsj0Nm12-17" edge="1">
          <mxGeometry relative="1" as="geometry" />
        </mxCell>
        <mxCell id="9n74j1pBVIIbqsj0Nm12-27" value="ClassType" style="ellipse;whiteSpace=wrap;html=1;" parent="1" vertex="1">
          <mxGeometry x="2133" y="1005" width="120" height="80" as="geometry" />
        </mxCell>
        <mxCell id="9n74j1pBVIIbqsj0Nm12-29" style="edgeStyle=orthogonalEdgeStyle;rounded=0;orthogonalLoop=1;jettySize=auto;html=1;exitX=1;exitY=0.5;exitDx=0;exitDy=0;entryX=0;entryY=0.5;entryDx=0;entryDy=0;endArrow=none;endFill=0;" parent="1" source="9n74j1pBVIIbqsj0Nm12-30" target="jOgV_od5qk4-MP1on5pw-29" edge="1">
          <mxGeometry relative="1" as="geometry">
            <mxPoint x="2332" y="487" as="targetPoint" />
          </mxGeometry>
        </mxCell>
        <mxCell id="9n74j1pBVIIbqsj0Nm12-30" value="ClassID" style="ellipse;whiteSpace=wrap;html=1;" parent="1" vertex="1">
          <mxGeometry x="2133" y="492" width="120" height="80" as="geometry" />
        </mxCell>
        <mxCell id="9n74j1pBVIIbqsj0Nm12-31" style="edgeStyle=orthogonalEdgeStyle;rounded=0;orthogonalLoop=1;jettySize=auto;html=1;exitX=1;exitY=0.5;exitDx=0;exitDy=0;endArrow=none;endFill=0;entryX=0;entryY=0.5;entryDx=0;entryDy=0;" parent="1" source="9n74j1pBVIIbqsj0Nm12-32" target="jOgV_od5qk4-MP1on5pw-29" edge="1">
          <mxGeometry relative="1" as="geometry">
            <mxPoint x="2281" y="470" as="targetPoint" />
          </mxGeometry>
        </mxCell>
        <mxCell id="9n74j1pBVIIbqsj0Nm12-32" value="TraineeID" style="ellipse;whiteSpace=wrap;html=1;" parent="1" vertex="1">
          <mxGeometry x="2133" y="400" width="120" height="80" as="geometry" />
        </mxCell>
        <mxCell id="9n74j1pBVIIbqsj0Nm12-33" style="edgeStyle=orthogonalEdgeStyle;rounded=0;orthogonalLoop=1;jettySize=auto;html=1;exitX=0;exitY=0.5;exitDx=0;exitDy=0;entryX=1;entryY=0.5;entryDx=0;entryDy=0;endArrow=none;endFill=0;" parent="1" source="9n74j1pBVIIbqsj0Nm12-34" target="9n74j1pBVIIbqsj0Nm12-43" edge="1">
          <mxGeometry relative="1" as="geometry">
            <mxPoint x="2907" y="861" as="targetPoint" />
          </mxGeometry>
        </mxCell>
        <mxCell id="9n74j1pBVIIbqsj0Nm12-34" value="Duration" style="ellipse;whiteSpace=wrap;html=1;" parent="1" vertex="1">
          <mxGeometry x="2980" y="866" width="120" height="80" as="geometry" />
        </mxCell>
        <mxCell id="9n74j1pBVIIbqsj0Nm12-35" style="edgeStyle=orthogonalEdgeStyle;rounded=0;orthogonalLoop=1;jettySize=auto;html=1;exitX=0;exitY=0.5;exitDx=0;exitDy=0;endArrow=none;endFill=0;entryX=1;entryY=0.5;entryDx=0;entryDy=0;" parent="1" source="9n74j1pBVIIbqsj0Nm12-36" target="9n74j1pBVIIbqsj0Nm12-43" edge="1">
          <mxGeometry relative="1" as="geometry">
            <mxPoint x="2907" y="861" as="targetPoint" />
          </mxGeometry>
        </mxCell>
        <mxCell id="9n74j1pBVIIbqsj0Nm12-36" value="CourseName" style="ellipse;whiteSpace=wrap;html=1;" parent="1" vertex="1">
          <mxGeometry x="2980" y="774" width="120" height="80" as="geometry" />
        </mxCell>
        <mxCell id="9n74j1pBVIIbqsj0Nm12-37" style="edgeStyle=orthogonalEdgeStyle;rounded=0;orthogonalLoop=1;jettySize=auto;html=1;exitX=0;exitY=0.5;exitDx=0;exitDy=0;entryX=1;entryY=0.5;entryDx=0;entryDy=0;endArrow=none;endFill=0;" parent="1" source="9n74j1pBVIIbqsj0Nm12-38" target="9n74j1pBVIIbqsj0Nm12-43" edge="1">
          <mxGeometry relative="1" as="geometry">
            <mxPoint x="2907" y="861" as="targetPoint" />
          </mxGeometry>
        </mxCell>
        <mxCell id="9n74j1pBVIIbqsj0Nm12-38" value="CourseCode" style="ellipse;whiteSpace=wrap;html=1;" parent="1" vertex="1">
          <mxGeometry x="2980" y="682" width="120" height="80" as="geometry" />
        </mxCell>
        <mxCell id="9n74j1pBVIIbqsj0Nm12-39" style="edgeStyle=orthogonalEdgeStyle;rounded=0;orthogonalLoop=1;jettySize=auto;html=1;exitX=0;exitY=0.5;exitDx=0;exitDy=0;entryX=1;entryY=0.5;entryDx=0;entryDy=0;endArrow=none;endFill=0;" parent="1" source="9n74j1pBVIIbqsj0Nm12-40" target="9n74j1pBVIIbqsj0Nm12-43" edge="1">
          <mxGeometry relative="1" as="geometry">
            <mxPoint x="2907" y="861" as="targetPoint" />
          </mxGeometry>
        </mxCell>
        <mxCell id="9n74j1pBVIIbqsj0Nm12-40" value="CourseType" style="ellipse;whiteSpace=wrap;html=1;" parent="1" vertex="1">
          <mxGeometry x="2980" y="958" width="120" height="80" as="geometry" />
        </mxCell>
        <mxCell id="9n74j1pBVIIbqsj0Nm12-43" value="&lt;div style=&quot;color: rgb(36, 41, 46); background-color: rgb(255, 255, 255); font-family: &amp;quot;Droid Sans Mono&amp;quot;, &amp;quot;monospace&amp;quot;, monospace; font-size: 13px; line-height: 18px; white-space: pre;&quot;&gt;Course&lt;/div&gt;" style="rounded=0;whiteSpace=wrap;html=1;" parent="1" vertex="1">
          <mxGeometry x="2787" y="831" width="120" height="60" as="geometry" />
        </mxCell>
        <mxCell id="jOgV_od5qk4-MP1on5pw-12" style="edgeStyle=orthogonalEdgeStyle;rounded=0;orthogonalLoop=1;jettySize=auto;html=1;exitX=0.5;exitY=1;exitDx=0;exitDy=0;entryX=0.5;entryY=0;entryDx=0;entryDy=0;endArrow=none;endFill=0;" edge="1" parent="1" source="jOgV_od5qk4-MP1on5pw-4" target="jOgV_od5qk4-MP1on5pw-9">
          <mxGeometry relative="1" as="geometry" />
        </mxCell>
        <mxCell id="jOgV_od5qk4-MP1on5pw-4" value="Email" style="ellipse;whiteSpace=wrap;html=1;" vertex="1" parent="1">
          <mxGeometry x="2548" y="325" width="120" height="80" as="geometry" />
        </mxCell>
        <mxCell id="jOgV_od5qk4-MP1on5pw-11" style="edgeStyle=orthogonalEdgeStyle;rounded=0;orthogonalLoop=1;jettySize=auto;html=1;exitX=0.5;exitY=1;exitDx=0;exitDy=0;entryX=0.5;entryY=0;entryDx=0;entryDy=0;endArrow=none;endFill=0;" edge="1" parent="1" source="jOgV_od5qk4-MP1on5pw-6" target="jOgV_od5qk4-MP1on5pw-9">
          <mxGeometry relative="1" as="geometry" />
        </mxCell>
        <mxCell id="jOgV_od5qk4-MP1on5pw-6" value="TraineeID" style="ellipse;whiteSpace=wrap;html=1;" vertex="1" parent="1">
          <mxGeometry x="2419" y="325" width="120" height="80" as="geometry" />
        </mxCell>
        <mxCell id="jOgV_od5qk4-MP1on5pw-13" style="edgeStyle=orthogonalEdgeStyle;rounded=0;orthogonalLoop=1;jettySize=auto;html=1;exitX=0.5;exitY=1;exitDx=0;exitDy=0;endArrow=none;endFill=0;" edge="1" parent="1" source="jOgV_od5qk4-MP1on5pw-8" target="jOgV_od5qk4-MP1on5pw-9">
          <mxGeometry relative="1" as="geometry" />
        </mxCell>
        <mxCell id="jOgV_od5qk4-MP1on5pw-8" value="PhoneNumber" style="ellipse;whiteSpace=wrap;html=1;" vertex="1" parent="1">
          <mxGeometry x="2677" y="325" width="120" height="80" as="geometry" />
        </mxCell>
        <mxCell id="jOgV_od5qk4-MP1on5pw-44" style="rounded=0;orthogonalLoop=1;jettySize=auto;html=1;exitX=0.25;exitY=1;exitDx=0;exitDy=0;entryX=0.5;entryY=0;entryDx=0;entryDy=0;" edge="1" parent="1" source="jOgV_od5qk4-MP1on5pw-9" target="jOgV_od5qk4-MP1on5pw-42">
          <mxGeometry relative="1" as="geometry" />
        </mxCell>
        <mxCell id="jOgV_od5qk4-MP1on5pw-9" value="&lt;div style=&quot;color: rgb(36, 41, 46); background-color: rgb(255, 255, 255); font-family: &amp;quot;Droid Sans Mono&amp;quot;, &amp;quot;monospace&amp;quot;, monospace; font-size: 13px; line-height: 18px; white-space: pre;&quot;&gt;Trainee&lt;br&gt;&lt;/div&gt;" style="rounded=0;whiteSpace=wrap;html=1;" vertex="1" parent="1">
          <mxGeometry x="2548" y="457" width="120" height="60" as="geometry" />
        </mxCell>
        <mxCell id="jOgV_od5qk4-MP1on5pw-26" style="edgeStyle=orthogonalEdgeStyle;rounded=0;orthogonalLoop=1;jettySize=auto;html=1;exitX=0.5;exitY=0;exitDx=0;exitDy=0;endArrow=none;endFill=0;" edge="1" parent="1" source="jOgV_od5qk4-MP1on5pw-18" target="jOgV_od5qk4-MP1on5pw-22">
          <mxGeometry relative="1" as="geometry" />
        </mxCell>
        <mxCell id="jOgV_od5qk4-MP1on5pw-18" value="CourseCode" style="ellipse;whiteSpace=wrap;html=1;" vertex="1" parent="1">
          <mxGeometry x="2612.5" y="980" width="120" height="80" as="geometry" />
        </mxCell>
        <mxCell id="jOgV_od5qk4-MP1on5pw-20" value="ClassID" style="ellipse;whiteSpace=wrap;html=1;" vertex="1" parent="1">
          <mxGeometry x="2483.5" y="980" width="120" height="80" as="geometry" />
        </mxCell>
        <mxCell id="jOgV_od5qk4-MP1on5pw-22" value="&lt;span style=&quot;color: rgb(36, 41, 46); font-family: &amp;quot;Droid Sans Mono&amp;quot;, &amp;quot;monospace&amp;quot;, monospace; font-size: 13px; white-space: pre;&quot;&gt;ClassCourse&lt;/span&gt;" style="shape=associativeEntity;whiteSpace=wrap;html=1;align=center;" vertex="1" parent="1">
          <mxGeometry x="2541.5" y="831" width="140" height="60" as="geometry" />
        </mxCell>
        <mxCell id="jOgV_od5qk4-MP1on5pw-25" style="edgeStyle=orthogonalEdgeStyle;rounded=0;orthogonalLoop=1;jettySize=auto;html=1;exitX=0.5;exitY=0;exitDx=0;exitDy=0;entryX=0.5;entryY=1;entryDx=0;entryDy=0;endArrow=none;endFill=0;" edge="1" parent="1" source="jOgV_od5qk4-MP1on5pw-20" target="jOgV_od5qk4-MP1on5pw-22">
          <mxGeometry relative="1" as="geometry">
            <mxPoint x="2573.5" y="937" as="targetPoint" />
          </mxGeometry>
        </mxCell>
        <mxCell id="jOgV_od5qk4-MP1on5pw-29" value="&lt;span style=&quot;color: rgb(36, 41, 46); font-family: &amp;quot;Droid Sans Mono&amp;quot;, &amp;quot;monospace&amp;quot;, monospace; font-size: 13px; white-space: pre;&quot;&gt;TraineeClass&lt;/span&gt;" style="shape=associativeEntity;whiteSpace=wrap;html=1;align=center;" vertex="1" parent="1">
          <mxGeometry x="2322" y="457" width="140" height="60" as="geometry" />
        </mxCell>
        <mxCell id="jOgV_od5qk4-MP1on5pw-30" value="" style="fontSize=12;html=1;endArrow=ERmandOne;startArrow=ERmandOne;rounded=0;entryX=0;entryY=0.5;entryDx=0;entryDy=0;exitX=1;exitY=0.5;exitDx=0;exitDy=0;" edge="1" parent="1" source="jOgV_od5qk4-MP1on5pw-9" target="9n74j1pBVIIbqsj0Nm12-16">
          <mxGeometry width="100" height="100" relative="1" as="geometry">
            <mxPoint x="2492" y="605" as="sourcePoint" />
            <mxPoint x="2592" y="505" as="targetPoint" />
          </mxGeometry>
        </mxCell>
        <mxCell id="jOgV_od5qk4-MP1on5pw-31" value="" style="fontSize=12;html=1;endArrow=ERoneToMany;rounded=0;exitX=0;exitY=0.5;exitDx=0;exitDy=0;entryX=1;entryY=0.5;entryDx=0;entryDy=0;" edge="1" parent="1" source="jOgV_od5qk4-MP1on5pw-9" target="jOgV_od5qk4-MP1on5pw-29">
          <mxGeometry width="100" height="100" relative="1" as="geometry">
            <mxPoint x="2465" y="672" as="sourcePoint" />
            <mxPoint x="2504" y="538" as="targetPoint" />
          </mxGeometry>
        </mxCell>
        <mxCell id="jOgV_od5qk4-MP1on5pw-32" value="" style="fontSize=12;html=1;endArrow=ERoneToMany;rounded=0;entryX=0.5;entryY=1;entryDx=0;entryDy=0;exitX=0.5;exitY=0;exitDx=0;exitDy=0;" edge="1" parent="1" source="9n74j1pBVIIbqsj0Nm12-17" target="jOgV_od5qk4-MP1on5pw-29">
          <mxGeometry width="100" height="100" relative="1" as="geometry">
            <mxPoint x="2482" y="497" as="sourcePoint" />
            <mxPoint x="2558" y="497" as="targetPoint" />
          </mxGeometry>
        </mxCell>
        <mxCell id="jOgV_od5qk4-MP1on5pw-33" value="" style="fontSize=12;html=1;endArrow=ERoneToMany;rounded=0;entryX=0;entryY=0.5;entryDx=0;entryDy=0;exitX=1;exitY=0.5;exitDx=0;exitDy=0;" edge="1" parent="1" source="9n74j1pBVIIbqsj0Nm12-17" target="jOgV_od5qk4-MP1on5pw-22">
          <mxGeometry width="100" height="100" relative="1" as="geometry">
            <mxPoint x="2402" y="841" as="sourcePoint" />
            <mxPoint x="2402" y="527" as="targetPoint" />
          </mxGeometry>
        </mxCell>
        <mxCell id="jOgV_od5qk4-MP1on5pw-34" value="" style="fontSize=12;html=1;endArrow=ERoneToMany;rounded=0;entryX=1;entryY=0.5;entryDx=0;entryDy=0;exitX=0;exitY=0.5;exitDx=0;exitDy=0;" edge="1" parent="1" source="9n74j1pBVIIbqsj0Nm12-43" target="jOgV_od5qk4-MP1on5pw-22">
          <mxGeometry width="100" height="100" relative="1" as="geometry">
            <mxPoint x="2462" y="871" as="sourcePoint" />
            <mxPoint x="2551" y="871" as="targetPoint" />
          </mxGeometry>
        </mxCell>
        <mxCell id="jOgV_od5qk4-MP1on5pw-35" value="Of Category" style="shape=rhombus;perimeter=rhombusPerimeter;whiteSpace=wrap;html=1;align=center;" vertex="1" parent="1">
          <mxGeometry x="395" y="807" width="120" height="60" as="geometry" />
        </mxCell>
        <mxCell id="jOgV_od5qk4-MP1on5pw-37" value="Make Purchase(s)" style="shape=rhombus;perimeter=rhombusPerimeter;whiteSpace=wrap;html=1;align=center;" vertex="1" parent="1">
          <mxGeometry x="576" y="480" width="120" height="60" as="geometry" />
        </mxCell>
        <mxCell id="jOgV_od5qk4-MP1on5pw-41" value="Took exam" style="shape=rhombus;perimeter=rhombusPerimeter;whiteSpace=wrap;html=1;align=center;" vertex="1" parent="1">
          <mxGeometry x="2684" y="468.5" width="74" height="37" as="geometry" />
        </mxCell>
        <mxCell id="jOgV_od5qk4-MP1on5pw-45" style="rounded=0;orthogonalLoop=1;jettySize=auto;html=1;exitX=0.5;exitY=1;exitDx=0;exitDy=0;entryX=1;entryY=0;entryDx=0;entryDy=0;" edge="1" parent="1" source="jOgV_od5qk4-MP1on5pw-42" target="9n74j1pBVIIbqsj0Nm12-17">
          <mxGeometry relative="1" as="geometry" />
        </mxCell>
        <mxCell id="jOgV_od5qk4-MP1on5pw-42" value="Allocated" style="shape=rhombus;perimeter=rhombusPerimeter;whiteSpace=wrap;html=1;align=center;" vertex="1" parent="1">
          <mxGeometry x="2469" y="612" width="120" height="60" as="geometry" />
        </mxCell>
        <mxCell id="jOgV_od5qk4-MP1on5pw-46" value="&lt;span style=&quot;color: rgb(36, 41, 46); font-family: &amp;quot;Droid Sans Mono&amp;quot;, &amp;quot;monospace&amp;quot;, monospace; font-size: 13px; font-weight: 400; white-space-collapse: preserve;&quot;&gt;Customer&lt;/span&gt;" style="shape=table;startSize=30;container=1;collapsible=1;childLayout=tableLayout;fixedRows=1;rowLines=0;fontStyle=1;align=center;resizeLast=1;html=1;" vertex="1" parent="1">
          <mxGeometry x="-1190" y="-310" width="180" height="180" as="geometry" />
        </mxCell>
        <mxCell id="jOgV_od5qk4-MP1on5pw-47" value="" style="shape=tableRow;horizontal=0;startSize=0;swimlaneHead=0;swimlaneBody=0;fillColor=none;collapsible=0;dropTarget=0;points=[[0,0.5],[1,0.5]];portConstraint=eastwest;top=0;left=0;right=0;bottom=1;" vertex="1" parent="jOgV_od5qk4-MP1on5pw-46">
          <mxGeometry y="30" width="180" height="30" as="geometry" />
        </mxCell>
        <mxCell id="jOgV_od5qk4-MP1on5pw-48" value="" style="shape=partialRectangle;connectable=0;fillColor=none;top=0;left=0;bottom=0;right=0;fontStyle=1;overflow=hidden;whiteSpace=wrap;html=1;" vertex="1" parent="jOgV_od5qk4-MP1on5pw-47">
          <mxGeometry width="30" height="30" as="geometry">
            <mxRectangle width="30" height="30" as="alternateBounds" />
          </mxGeometry>
        </mxCell>
        <mxCell id="jOgV_od5qk4-MP1on5pw-49" value="ID" style="shape=partialRectangle;connectable=0;fillColor=none;top=0;left=0;bottom=0;right=0;align=left;spacingLeft=6;fontStyle=5;overflow=hidden;whiteSpace=wrap;html=1;" vertex="1" parent="jOgV_od5qk4-MP1on5pw-47">
          <mxGeometry x="30" width="150" height="30" as="geometry">
            <mxRectangle width="150" height="30" as="alternateBounds" />
          </mxGeometry>
        </mxCell>
        <mxCell id="jOgV_od5qk4-MP1on5pw-50" value="" style="shape=tableRow;horizontal=0;startSize=0;swimlaneHead=0;swimlaneBody=0;fillColor=none;collapsible=0;dropTarget=0;points=[[0,0.5],[1,0.5]];portConstraint=eastwest;top=0;left=0;right=0;bottom=0;" vertex="1" parent="jOgV_od5qk4-MP1on5pw-46">
          <mxGeometry y="60" width="180" height="30" as="geometry" />
        </mxCell>
        <mxCell id="jOgV_od5qk4-MP1on5pw-51" value="" style="shape=partialRectangle;connectable=0;fillColor=none;top=0;left=0;bottom=0;right=0;editable=1;overflow=hidden;whiteSpace=wrap;html=1;" vertex="1" parent="jOgV_od5qk4-MP1on5pw-50">
          <mxGeometry width="30" height="30" as="geometry">
            <mxRectangle width="30" height="30" as="alternateBounds" />
          </mxGeometry>
        </mxCell>
        <mxCell id="jOgV_od5qk4-MP1on5pw-52" value="Name" style="shape=partialRectangle;connectable=0;fillColor=none;top=0;left=0;bottom=0;right=0;align=left;spacingLeft=6;overflow=hidden;whiteSpace=wrap;html=1;" vertex="1" parent="jOgV_od5qk4-MP1on5pw-50">
          <mxGeometry x="30" width="150" height="30" as="geometry">
            <mxRectangle width="150" height="30" as="alternateBounds" />
          </mxGeometry>
        </mxCell>
        <mxCell id="jOgV_od5qk4-MP1on5pw-53" value="" style="shape=tableRow;horizontal=0;startSize=0;swimlaneHead=0;swimlaneBody=0;fillColor=none;collapsible=0;dropTarget=0;points=[[0,0.5],[1,0.5]];portConstraint=eastwest;top=0;left=0;right=0;bottom=0;" vertex="1" parent="jOgV_od5qk4-MP1on5pw-46">
          <mxGeometry y="90" width="180" height="30" as="geometry" />
        </mxCell>
        <mxCell id="jOgV_od5qk4-MP1on5pw-54" value="" style="shape=partialRectangle;connectable=0;fillColor=none;top=0;left=0;bottom=0;right=0;editable=1;overflow=hidden;whiteSpace=wrap;html=1;" vertex="1" parent="jOgV_od5qk4-MP1on5pw-53">
          <mxGeometry width="30" height="30" as="geometry">
            <mxRectangle width="30" height="30" as="alternateBounds" />
          </mxGeometry>
        </mxCell>
        <mxCell id="jOgV_od5qk4-MP1on5pw-55" value="&lt;span style=&quot;text-align: center;&quot;&gt;Phone #&lt;/span&gt;" style="shape=partialRectangle;connectable=0;fillColor=none;top=0;left=0;bottom=0;right=0;align=left;spacingLeft=6;overflow=hidden;whiteSpace=wrap;html=1;" vertex="1" parent="jOgV_od5qk4-MP1on5pw-53">
          <mxGeometry x="30" width="150" height="30" as="geometry">
            <mxRectangle width="150" height="30" as="alternateBounds" />
          </mxGeometry>
        </mxCell>
        <mxCell id="jOgV_od5qk4-MP1on5pw-56" value="" style="shape=tableRow;horizontal=0;startSize=0;swimlaneHead=0;swimlaneBody=0;fillColor=none;collapsible=0;dropTarget=0;points=[[0,0.5],[1,0.5]];portConstraint=eastwest;top=0;left=0;right=0;bottom=0;" vertex="1" parent="jOgV_od5qk4-MP1on5pw-46">
          <mxGeometry y="120" width="180" height="30" as="geometry" />
        </mxCell>
        <mxCell id="jOgV_od5qk4-MP1on5pw-57" value="" style="shape=partialRectangle;connectable=0;fillColor=none;top=0;left=0;bottom=0;right=0;editable=1;overflow=hidden;whiteSpace=wrap;html=1;" vertex="1" parent="jOgV_od5qk4-MP1on5pw-56">
          <mxGeometry width="30" height="30" as="geometry">
            <mxRectangle width="30" height="30" as="alternateBounds" />
          </mxGeometry>
        </mxCell>
        <mxCell id="jOgV_od5qk4-MP1on5pw-58" value="&lt;span style=&quot;text-align: center;&quot;&gt;Email&lt;/span&gt;" style="shape=partialRectangle;connectable=0;fillColor=none;top=0;left=0;bottom=0;right=0;align=left;spacingLeft=6;overflow=hidden;whiteSpace=wrap;html=1;" vertex="1" parent="jOgV_od5qk4-MP1on5pw-56">
          <mxGeometry x="30" width="150" height="30" as="geometry">
            <mxRectangle width="150" height="30" as="alternateBounds" />
          </mxGeometry>
        </mxCell>
        <mxCell id="jOgV_od5qk4-MP1on5pw-88" value="" style="shape=tableRow;horizontal=0;startSize=0;swimlaneHead=0;swimlaneBody=0;fillColor=none;collapsible=0;dropTarget=0;points=[[0,0.5],[1,0.5]];portConstraint=eastwest;top=0;left=0;right=0;bottom=0;" vertex="1" parent="jOgV_od5qk4-MP1on5pw-46">
          <mxGeometry y="150" width="180" height="30" as="geometry" />
        </mxCell>
        <mxCell id="jOgV_od5qk4-MP1on5pw-89" value="" style="shape=partialRectangle;connectable=0;fillColor=none;top=0;left=0;bottom=0;right=0;editable=1;overflow=hidden;whiteSpace=wrap;html=1;" vertex="1" parent="jOgV_od5qk4-MP1on5pw-88">
          <mxGeometry width="30" height="30" as="geometry">
            <mxRectangle width="30" height="30" as="alternateBounds" />
          </mxGeometry>
        </mxCell>
        <mxCell id="jOgV_od5qk4-MP1on5pw-90" value="&lt;span style=&quot;text-align: center;&quot;&gt;Address&lt;/span&gt;" style="shape=partialRectangle;connectable=0;fillColor=none;top=0;left=0;bottom=0;right=0;align=left;spacingLeft=6;overflow=hidden;whiteSpace=wrap;html=1;" vertex="1" parent="jOgV_od5qk4-MP1on5pw-88">
          <mxGeometry x="30" width="150" height="30" as="geometry">
            <mxRectangle width="150" height="30" as="alternateBounds" />
          </mxGeometry>
        </mxCell>
        <mxCell id="jOgV_od5qk4-MP1on5pw-94" value="&lt;span style=&quot;color: rgb(36, 41, 46); font-family: &amp;quot;Droid Sans Mono&amp;quot;, &amp;quot;monospace&amp;quot;, monospace; font-size: 13px; font-weight: 400; white-space-collapse: preserve;&quot;&gt;Category&lt;/span&gt;" style="shape=table;startSize=30;container=1;collapsible=1;childLayout=tableLayout;fixedRows=1;rowLines=0;fontStyle=1;align=center;resizeLast=1;html=1;" vertex="1" parent="1">
          <mxGeometry x="-1190" y="28" width="180" height="90" as="geometry" />
        </mxCell>
        <mxCell id="jOgV_od5qk4-MP1on5pw-95" value="" style="shape=tableRow;horizontal=0;startSize=0;swimlaneHead=0;swimlaneBody=0;fillColor=none;collapsible=0;dropTarget=0;points=[[0,0.5],[1,0.5]];portConstraint=eastwest;top=0;left=0;right=0;bottom=1;" vertex="1" parent="jOgV_od5qk4-MP1on5pw-94">
          <mxGeometry y="30" width="180" height="30" as="geometry" />
        </mxCell>
        <mxCell id="jOgV_od5qk4-MP1on5pw-96" value="" style="shape=partialRectangle;connectable=0;fillColor=none;top=0;left=0;bottom=0;right=0;fontStyle=1;overflow=hidden;whiteSpace=wrap;html=1;" vertex="1" parent="jOgV_od5qk4-MP1on5pw-95">
          <mxGeometry width="30" height="30" as="geometry">
            <mxRectangle width="30" height="30" as="alternateBounds" />
          </mxGeometry>
        </mxCell>
        <mxCell id="jOgV_od5qk4-MP1on5pw-97" value="ID" style="shape=partialRectangle;connectable=0;fillColor=none;top=0;left=0;bottom=0;right=0;align=left;spacingLeft=6;fontStyle=5;overflow=hidden;whiteSpace=wrap;html=1;" vertex="1" parent="jOgV_od5qk4-MP1on5pw-95">
          <mxGeometry x="30" width="150" height="30" as="geometry">
            <mxRectangle width="150" height="30" as="alternateBounds" />
          </mxGeometry>
        </mxCell>
        <mxCell id="jOgV_od5qk4-MP1on5pw-101" value="" style="shape=tableRow;horizontal=0;startSize=0;swimlaneHead=0;swimlaneBody=0;fillColor=none;collapsible=0;dropTarget=0;points=[[0,0.5],[1,0.5]];portConstraint=eastwest;top=0;left=0;right=0;bottom=0;" vertex="1" parent="jOgV_od5qk4-MP1on5pw-94">
          <mxGeometry y="60" width="180" height="30" as="geometry" />
        </mxCell>
        <mxCell id="jOgV_od5qk4-MP1on5pw-102" value="" style="shape=partialRectangle;connectable=0;fillColor=none;top=0;left=0;bottom=0;right=0;editable=1;overflow=hidden;whiteSpace=wrap;html=1;" vertex="1" parent="jOgV_od5qk4-MP1on5pw-101">
          <mxGeometry width="30" height="30" as="geometry">
            <mxRectangle width="30" height="30" as="alternateBounds" />
          </mxGeometry>
        </mxCell>
        <mxCell id="jOgV_od5qk4-MP1on5pw-103" value="Name" style="shape=partialRectangle;connectable=0;fillColor=none;top=0;left=0;bottom=0;right=0;align=left;spacingLeft=6;overflow=hidden;whiteSpace=wrap;html=1;" vertex="1" parent="jOgV_od5qk4-MP1on5pw-101">
          <mxGeometry x="30" width="150" height="30" as="geometry">
            <mxRectangle width="150" height="30" as="alternateBounds" />
          </mxGeometry>
        </mxCell>
        <mxCell id="jOgV_od5qk4-MP1on5pw-107" value="&lt;span style=&quot;font-weight: 400; color: rgb(36, 41, 46); font-family: &amp;quot;Droid Sans Mono&amp;quot;, &amp;quot;monospace&amp;quot;, monospace; font-size: 13px; white-space-collapse: preserve;&quot;&gt;Invoice &lt;/span&gt;&lt;span style=&quot;color: rgb(36, 41, 46); font-family: &amp;quot;Droid Sans Mono&amp;quot;, &amp;quot;monospace&amp;quot;, monospace; font-size: 13px; white-space-collapse: preserve; font-weight: 400; background-color: initial;&quot;&gt;Customer&lt;/span&gt;" style="shape=table;startSize=30;container=1;collapsible=1;childLayout=tableLayout;fixedRows=1;rowLines=0;fontStyle=1;align=center;resizeLast=1;html=1;" vertex="1" parent="1">
          <mxGeometry x="-742" y="-310" width="180" height="210" as="geometry" />
        </mxCell>
        <mxCell id="jOgV_od5qk4-MP1on5pw-108" value="" style="shape=tableRow;horizontal=0;startSize=0;swimlaneHead=0;swimlaneBody=0;fillColor=none;collapsible=0;dropTarget=0;points=[[0,0.5],[1,0.5]];portConstraint=eastwest;top=0;left=0;right=0;bottom=1;" vertex="1" parent="jOgV_od5qk4-MP1on5pw-107">
          <mxGeometry y="30" width="180" height="30" as="geometry" />
        </mxCell>
        <mxCell id="jOgV_od5qk4-MP1on5pw-109" value="" style="shape=partialRectangle;connectable=0;fillColor=none;top=0;left=0;bottom=0;right=0;fontStyle=1;overflow=hidden;whiteSpace=wrap;html=1;" vertex="1" parent="jOgV_od5qk4-MP1on5pw-108">
          <mxGeometry width="30" height="30" as="geometry">
            <mxRectangle width="30" height="30" as="alternateBounds" />
          </mxGeometry>
        </mxCell>
        <mxCell id="jOgV_od5qk4-MP1on5pw-110" value="Invoice Number" style="shape=partialRectangle;connectable=0;fillColor=none;top=0;left=0;bottom=0;right=0;align=left;spacingLeft=6;fontStyle=5;overflow=hidden;whiteSpace=wrap;html=1;" vertex="1" parent="jOgV_od5qk4-MP1on5pw-108">
          <mxGeometry x="30" width="150" height="30" as="geometry">
            <mxRectangle width="150" height="30" as="alternateBounds" />
          </mxGeometry>
        </mxCell>
        <mxCell id="jOgV_od5qk4-MP1on5pw-111" value="" style="shape=tableRow;horizontal=0;startSize=0;swimlaneHead=0;swimlaneBody=0;fillColor=none;collapsible=0;dropTarget=0;points=[[0,0.5],[1,0.5]];portConstraint=eastwest;top=0;left=0;right=0;bottom=0;" vertex="1" parent="jOgV_od5qk4-MP1on5pw-107">
          <mxGeometry y="60" width="180" height="30" as="geometry" />
        </mxCell>
        <mxCell id="jOgV_od5qk4-MP1on5pw-112" value="" style="shape=partialRectangle;connectable=0;fillColor=none;top=0;left=0;bottom=0;right=0;editable=1;overflow=hidden;whiteSpace=wrap;html=1;" vertex="1" parent="jOgV_od5qk4-MP1on5pw-111">
          <mxGeometry width="30" height="30" as="geometry">
            <mxRectangle width="30" height="30" as="alternateBounds" />
          </mxGeometry>
        </mxCell>
        <mxCell id="jOgV_od5qk4-MP1on5pw-113" value="&lt;span style=&quot;text-align: center;&quot;&gt;CustomerID&lt;/span&gt;" style="shape=partialRectangle;connectable=0;fillColor=none;top=0;left=0;bottom=0;right=0;align=left;spacingLeft=6;overflow=hidden;whiteSpace=wrap;html=1;" vertex="1" parent="jOgV_od5qk4-MP1on5pw-111">
          <mxGeometry x="30" width="150" height="30" as="geometry">
            <mxRectangle width="150" height="30" as="alternateBounds" />
          </mxGeometry>
        </mxCell>
        <mxCell id="jOgV_od5qk4-MP1on5pw-114" value="" style="shape=tableRow;horizontal=0;startSize=0;swimlaneHead=0;swimlaneBody=0;fillColor=none;collapsible=0;dropTarget=0;points=[[0,0.5],[1,0.5]];portConstraint=eastwest;top=0;left=0;right=0;bottom=0;" vertex="1" parent="jOgV_od5qk4-MP1on5pw-107">
          <mxGeometry y="90" width="180" height="30" as="geometry" />
        </mxCell>
        <mxCell id="jOgV_od5qk4-MP1on5pw-115" value="" style="shape=partialRectangle;connectable=0;fillColor=none;top=0;left=0;bottom=0;right=0;editable=1;overflow=hidden;whiteSpace=wrap;html=1;" vertex="1" parent="jOgV_od5qk4-MP1on5pw-114">
          <mxGeometry width="30" height="30" as="geometry">
            <mxRectangle width="30" height="30" as="alternateBounds" />
          </mxGeometry>
        </mxCell>
        <mxCell id="jOgV_od5qk4-MP1on5pw-116" value="&lt;span style=&quot;text-align: center;&quot;&gt;Name&lt;/span&gt;" style="shape=partialRectangle;connectable=0;fillColor=none;top=0;left=0;bottom=0;right=0;align=left;spacingLeft=6;overflow=hidden;whiteSpace=wrap;html=1;" vertex="1" parent="jOgV_od5qk4-MP1on5pw-114">
          <mxGeometry x="30" width="150" height="30" as="geometry">
            <mxRectangle width="150" height="30" as="alternateBounds" />
          </mxGeometry>
        </mxCell>
        <mxCell id="jOgV_od5qk4-MP1on5pw-117" value="" style="shape=tableRow;horizontal=0;startSize=0;swimlaneHead=0;swimlaneBody=0;fillColor=none;collapsible=0;dropTarget=0;points=[[0,0.5],[1,0.5]];portConstraint=eastwest;top=0;left=0;right=0;bottom=0;" vertex="1" parent="jOgV_od5qk4-MP1on5pw-107">
          <mxGeometry y="120" width="180" height="30" as="geometry" />
        </mxCell>
        <mxCell id="jOgV_od5qk4-MP1on5pw-118" value="" style="shape=partialRectangle;connectable=0;fillColor=none;top=0;left=0;bottom=0;right=0;editable=1;overflow=hidden;whiteSpace=wrap;html=1;" vertex="1" parent="jOgV_od5qk4-MP1on5pw-117">
          <mxGeometry width="30" height="30" as="geometry">
            <mxRectangle width="30" height="30" as="alternateBounds" />
          </mxGeometry>
        </mxCell>
        <mxCell id="jOgV_od5qk4-MP1on5pw-119" value="&lt;span style=&quot;text-align: center;&quot;&gt;Phone Number&lt;/span&gt;" style="shape=partialRectangle;connectable=0;fillColor=none;top=0;left=0;bottom=0;right=0;align=left;spacingLeft=6;overflow=hidden;whiteSpace=wrap;html=1;" vertex="1" parent="jOgV_od5qk4-MP1on5pw-117">
          <mxGeometry x="30" width="150" height="30" as="geometry">
            <mxRectangle width="150" height="30" as="alternateBounds" />
          </mxGeometry>
        </mxCell>
        <mxCell id="jOgV_od5qk4-MP1on5pw-120" value="" style="shape=tableRow;horizontal=0;startSize=0;swimlaneHead=0;swimlaneBody=0;fillColor=none;collapsible=0;dropTarget=0;points=[[0,0.5],[1,0.5]];portConstraint=eastwest;top=0;left=0;right=0;bottom=0;" vertex="1" parent="jOgV_od5qk4-MP1on5pw-107">
          <mxGeometry y="150" width="180" height="30" as="geometry" />
        </mxCell>
        <mxCell id="jOgV_od5qk4-MP1on5pw-121" value="" style="shape=partialRectangle;connectable=0;fillColor=none;top=0;left=0;bottom=0;right=0;editable=1;overflow=hidden;whiteSpace=wrap;html=1;" vertex="1" parent="jOgV_od5qk4-MP1on5pw-120">
          <mxGeometry width="30" height="30" as="geometry">
            <mxRectangle width="30" height="30" as="alternateBounds" />
          </mxGeometry>
        </mxCell>
        <mxCell id="jOgV_od5qk4-MP1on5pw-122" value="&lt;span style=&quot;text-align: center;&quot;&gt;Email&lt;/span&gt;" style="shape=partialRectangle;connectable=0;fillColor=none;top=0;left=0;bottom=0;right=0;align=left;spacingLeft=6;overflow=hidden;whiteSpace=wrap;html=1;" vertex="1" parent="jOgV_od5qk4-MP1on5pw-120">
          <mxGeometry x="30" width="150" height="30" as="geometry">
            <mxRectangle width="150" height="30" as="alternateBounds" />
          </mxGeometry>
        </mxCell>
        <mxCell id="jOgV_od5qk4-MP1on5pw-123" value="" style="shape=tableRow;horizontal=0;startSize=0;swimlaneHead=0;swimlaneBody=0;fillColor=none;collapsible=0;dropTarget=0;points=[[0,0.5],[1,0.5]];portConstraint=eastwest;top=0;left=0;right=0;bottom=0;" vertex="1" parent="jOgV_od5qk4-MP1on5pw-107">
          <mxGeometry y="180" width="180" height="30" as="geometry" />
        </mxCell>
        <mxCell id="jOgV_od5qk4-MP1on5pw-124" value="" style="shape=partialRectangle;connectable=0;fillColor=none;top=0;left=0;bottom=0;right=0;editable=1;overflow=hidden;whiteSpace=wrap;html=1;" vertex="1" parent="jOgV_od5qk4-MP1on5pw-123">
          <mxGeometry width="30" height="30" as="geometry">
            <mxRectangle width="30" height="30" as="alternateBounds" />
          </mxGeometry>
        </mxCell>
        <mxCell id="jOgV_od5qk4-MP1on5pw-125" value="&lt;span style=&quot;text-align: center;&quot;&gt;Address&lt;/span&gt;" style="shape=partialRectangle;connectable=0;fillColor=none;top=0;left=0;bottom=0;right=0;align=left;spacingLeft=6;overflow=hidden;whiteSpace=wrap;html=1;" vertex="1" parent="jOgV_od5qk4-MP1on5pw-123">
          <mxGeometry x="30" width="150" height="30" as="geometry">
            <mxRectangle width="150" height="30" as="alternateBounds" />
          </mxGeometry>
        </mxCell>
        <mxCell id="jOgV_od5qk4-MP1on5pw-127" value="&lt;span style=&quot;color: rgb(36, 41, 46); font-family: &amp;quot;Droid Sans Mono&amp;quot;, &amp;quot;monospace&amp;quot;, monospace; font-size: 13px; font-weight: 400; white-space-collapse: preserve;&quot;&gt;Invoice&lt;/span&gt;" style="shape=table;startSize=30;container=1;collapsible=1;childLayout=tableLayout;fixedRows=1;rowLines=0;fontStyle=1;align=center;resizeLast=1;html=1;" vertex="1" parent="1">
          <mxGeometry x="-260" y="-310" width="180" height="90" as="geometry" />
        </mxCell>
        <mxCell id="jOgV_od5qk4-MP1on5pw-128" value="" style="shape=tableRow;horizontal=0;startSize=0;swimlaneHead=0;swimlaneBody=0;fillColor=none;collapsible=0;dropTarget=0;points=[[0,0.5],[1,0.5]];portConstraint=eastwest;top=0;left=0;right=0;bottom=1;" vertex="1" parent="jOgV_od5qk4-MP1on5pw-127">
          <mxGeometry y="30" width="180" height="30" as="geometry" />
        </mxCell>
        <mxCell id="jOgV_od5qk4-MP1on5pw-129" value="" style="shape=partialRectangle;connectable=0;fillColor=none;top=0;left=0;bottom=0;right=0;fontStyle=1;overflow=hidden;whiteSpace=wrap;html=1;" vertex="1" parent="jOgV_od5qk4-MP1on5pw-128">
          <mxGeometry width="30" height="30" as="geometry">
            <mxRectangle width="30" height="30" as="alternateBounds" />
          </mxGeometry>
        </mxCell>
        <mxCell id="jOgV_od5qk4-MP1on5pw-130" value="Number" style="shape=partialRectangle;connectable=0;fillColor=none;top=0;left=0;bottom=0;right=0;align=left;spacingLeft=6;fontStyle=5;overflow=hidden;whiteSpace=wrap;html=1;" vertex="1" parent="jOgV_od5qk4-MP1on5pw-128">
          <mxGeometry x="30" width="150" height="30" as="geometry">
            <mxRectangle width="150" height="30" as="alternateBounds" />
          </mxGeometry>
        </mxCell>
        <mxCell id="jOgV_od5qk4-MP1on5pw-134" value="" style="shape=tableRow;horizontal=0;startSize=0;swimlaneHead=0;swimlaneBody=0;fillColor=none;collapsible=0;dropTarget=0;points=[[0,0.5],[1,0.5]];portConstraint=eastwest;top=0;left=0;right=0;bottom=0;" vertex="1" parent="jOgV_od5qk4-MP1on5pw-127">
          <mxGeometry y="60" width="180" height="30" as="geometry" />
        </mxCell>
        <mxCell id="jOgV_od5qk4-MP1on5pw-135" value="" style="shape=partialRectangle;connectable=0;fillColor=none;top=0;left=0;bottom=0;right=0;editable=1;overflow=hidden;whiteSpace=wrap;html=1;" vertex="1" parent="jOgV_od5qk4-MP1on5pw-134">
          <mxGeometry width="30" height="30" as="geometry">
            <mxRectangle width="30" height="30" as="alternateBounds" />
          </mxGeometry>
        </mxCell>
        <mxCell id="jOgV_od5qk4-MP1on5pw-136" value="&lt;span style=&quot;text-align: center;&quot;&gt;Date&lt;/span&gt;" style="shape=partialRectangle;connectable=0;fillColor=none;top=0;left=0;bottom=0;right=0;align=left;spacingLeft=6;overflow=hidden;whiteSpace=wrap;html=1;" vertex="1" parent="jOgV_od5qk4-MP1on5pw-134">
          <mxGeometry x="30" width="150" height="30" as="geometry">
            <mxRectangle width="150" height="30" as="alternateBounds" />
          </mxGeometry>
        </mxCell>
        <mxCell id="jOgV_od5qk4-MP1on5pw-143" value="&lt;span style=&quot;font-weight: 400; color: rgb(36, 41, 46); font-family: &amp;quot;Droid Sans Mono&amp;quot;, &amp;quot;monospace&amp;quot;, monospace; font-size: 13px; white-space-collapse: preserve;&quot;&gt;Invoice &lt;/span&gt;&lt;span style=&quot;color: rgb(36, 41, 46); font-family: &amp;quot;Droid Sans Mono&amp;quot;, &amp;quot;monospace&amp;quot;, monospace; font-size: 13px; white-space-collapse: preserve; font-weight: 400; background-color: initial;&quot;&gt;Detail&lt;/span&gt;" style="shape=table;startSize=30;container=1;collapsible=1;childLayout=tableLayout;fixedRows=1;rowLines=0;fontStyle=1;align=center;resizeLast=1;html=1;" vertex="1" parent="1">
          <mxGeometry x="-260" y="23" width="180" height="232" as="geometry" />
        </mxCell>
        <mxCell id="jOgV_od5qk4-MP1on5pw-144" value="" style="shape=tableRow;horizontal=0;startSize=0;swimlaneHead=0;swimlaneBody=0;fillColor=none;collapsible=0;dropTarget=0;points=[[0,0.5],[1,0.5]];portConstraint=eastwest;top=0;left=0;right=0;bottom=1;" vertex="1" parent="jOgV_od5qk4-MP1on5pw-143">
          <mxGeometry y="30" width="180" height="41" as="geometry" />
        </mxCell>
        <mxCell id="jOgV_od5qk4-MP1on5pw-145" value="" style="shape=partialRectangle;connectable=0;fillColor=none;top=0;left=0;bottom=0;right=0;fontStyle=1;overflow=hidden;whiteSpace=wrap;html=1;" vertex="1" parent="jOgV_od5qk4-MP1on5pw-144">
          <mxGeometry width="30" height="41" as="geometry">
            <mxRectangle width="30" height="41" as="alternateBounds" />
          </mxGeometry>
        </mxCell>
        <mxCell id="jOgV_od5qk4-MP1on5pw-146" value="Invoice Number" style="shape=partialRectangle;connectable=0;fillColor=none;top=0;left=0;bottom=0;right=0;align=left;spacingLeft=6;fontStyle=5;overflow=hidden;whiteSpace=wrap;html=1;" vertex="1" parent="jOgV_od5qk4-MP1on5pw-144">
          <mxGeometry x="30" width="150" height="41" as="geometry">
            <mxRectangle width="150" height="41" as="alternateBounds" />
          </mxGeometry>
        </mxCell>
        <mxCell id="jOgV_od5qk4-MP1on5pw-290" value="" style="shape=tableRow;horizontal=0;startSize=0;swimlaneHead=0;swimlaneBody=0;fillColor=none;collapsible=0;dropTarget=0;points=[[0,0.5],[1,0.5]];portConstraint=eastwest;top=0;left=0;right=0;bottom=1;" vertex="1" parent="jOgV_od5qk4-MP1on5pw-143">
          <mxGeometry y="71" width="180" height="41" as="geometry" />
        </mxCell>
        <mxCell id="jOgV_od5qk4-MP1on5pw-291" value="" style="shape=partialRectangle;connectable=0;fillColor=none;top=0;left=0;bottom=0;right=0;fontStyle=1;overflow=hidden;whiteSpace=wrap;html=1;" vertex="1" parent="jOgV_od5qk4-MP1on5pw-290">
          <mxGeometry width="30" height="41" as="geometry">
            <mxRectangle width="30" height="41" as="alternateBounds" />
          </mxGeometry>
        </mxCell>
        <mxCell id="jOgV_od5qk4-MP1on5pw-292" value="&lt;div&gt;&lt;div&gt;ProductID&lt;/div&gt;&lt;/div&gt;" style="shape=partialRectangle;connectable=0;fillColor=none;top=0;left=0;bottom=0;right=0;align=left;spacingLeft=6;fontStyle=5;overflow=hidden;whiteSpace=wrap;html=1;" vertex="1" parent="jOgV_od5qk4-MP1on5pw-290">
          <mxGeometry x="30" width="150" height="41" as="geometry">
            <mxRectangle width="150" height="41" as="alternateBounds" />
          </mxGeometry>
        </mxCell>
        <mxCell id="jOgV_od5qk4-MP1on5pw-147" value="" style="shape=tableRow;horizontal=0;startSize=0;swimlaneHead=0;swimlaneBody=0;fillColor=none;collapsible=0;dropTarget=0;points=[[0,0.5],[1,0.5]];portConstraint=eastwest;top=0;left=0;right=0;bottom=0;" vertex="1" parent="jOgV_od5qk4-MP1on5pw-143">
          <mxGeometry y="112" width="180" height="30" as="geometry" />
        </mxCell>
        <mxCell id="jOgV_od5qk4-MP1on5pw-148" value="" style="shape=partialRectangle;connectable=0;fillColor=none;top=0;left=0;bottom=0;right=0;editable=1;overflow=hidden;whiteSpace=wrap;html=1;" vertex="1" parent="jOgV_od5qk4-MP1on5pw-147">
          <mxGeometry width="30" height="30" as="geometry">
            <mxRectangle width="30" height="30" as="alternateBounds" />
          </mxGeometry>
        </mxCell>
        <mxCell id="jOgV_od5qk4-MP1on5pw-149" value="Name" style="shape=partialRectangle;connectable=0;fillColor=none;top=0;left=0;bottom=0;right=0;align=left;spacingLeft=6;overflow=hidden;whiteSpace=wrap;html=1;" vertex="1" parent="jOgV_od5qk4-MP1on5pw-147">
          <mxGeometry x="30" width="150" height="30" as="geometry">
            <mxRectangle width="150" height="30" as="alternateBounds" />
          </mxGeometry>
        </mxCell>
        <mxCell id="jOgV_od5qk4-MP1on5pw-150" value="" style="shape=tableRow;horizontal=0;startSize=0;swimlaneHead=0;swimlaneBody=0;fillColor=none;collapsible=0;dropTarget=0;points=[[0,0.5],[1,0.5]];portConstraint=eastwest;top=0;left=0;right=0;bottom=0;" vertex="1" parent="jOgV_od5qk4-MP1on5pw-143">
          <mxGeometry y="142" width="180" height="30" as="geometry" />
        </mxCell>
        <mxCell id="jOgV_od5qk4-MP1on5pw-151" value="" style="shape=partialRectangle;connectable=0;fillColor=none;top=0;left=0;bottom=0;right=0;editable=1;overflow=hidden;whiteSpace=wrap;html=1;" vertex="1" parent="jOgV_od5qk4-MP1on5pw-150">
          <mxGeometry width="30" height="30" as="geometry">
            <mxRectangle width="30" height="30" as="alternateBounds" />
          </mxGeometry>
        </mxCell>
        <mxCell id="jOgV_od5qk4-MP1on5pw-152" value="&lt;span style=&quot;text-align: center;&quot;&gt;Phone #&lt;/span&gt;" style="shape=partialRectangle;connectable=0;fillColor=none;top=0;left=0;bottom=0;right=0;align=left;spacingLeft=6;overflow=hidden;whiteSpace=wrap;html=1;" vertex="1" parent="jOgV_od5qk4-MP1on5pw-150">
          <mxGeometry x="30" width="150" height="30" as="geometry">
            <mxRectangle width="150" height="30" as="alternateBounds" />
          </mxGeometry>
        </mxCell>
        <mxCell id="jOgV_od5qk4-MP1on5pw-153" value="" style="shape=tableRow;horizontal=0;startSize=0;swimlaneHead=0;swimlaneBody=0;fillColor=none;collapsible=0;dropTarget=0;points=[[0,0.5],[1,0.5]];portConstraint=eastwest;top=0;left=0;right=0;bottom=0;" vertex="1" parent="jOgV_od5qk4-MP1on5pw-143">
          <mxGeometry y="172" width="180" height="30" as="geometry" />
        </mxCell>
        <mxCell id="jOgV_od5qk4-MP1on5pw-154" value="" style="shape=partialRectangle;connectable=0;fillColor=none;top=0;left=0;bottom=0;right=0;editable=1;overflow=hidden;whiteSpace=wrap;html=1;" vertex="1" parent="jOgV_od5qk4-MP1on5pw-153">
          <mxGeometry width="30" height="30" as="geometry">
            <mxRectangle width="30" height="30" as="alternateBounds" />
          </mxGeometry>
        </mxCell>
        <mxCell id="jOgV_od5qk4-MP1on5pw-155" value="&lt;span style=&quot;text-align: center;&quot;&gt;Email&lt;/span&gt;" style="shape=partialRectangle;connectable=0;fillColor=none;top=0;left=0;bottom=0;right=0;align=left;spacingLeft=6;overflow=hidden;whiteSpace=wrap;html=1;" vertex="1" parent="jOgV_od5qk4-MP1on5pw-153">
          <mxGeometry x="30" width="150" height="30" as="geometry">
            <mxRectangle width="150" height="30" as="alternateBounds" />
          </mxGeometry>
        </mxCell>
        <mxCell id="jOgV_od5qk4-MP1on5pw-156" value="" style="shape=tableRow;horizontal=0;startSize=0;swimlaneHead=0;swimlaneBody=0;fillColor=none;collapsible=0;dropTarget=0;points=[[0,0.5],[1,0.5]];portConstraint=eastwest;top=0;left=0;right=0;bottom=0;" vertex="1" parent="jOgV_od5qk4-MP1on5pw-143">
          <mxGeometry y="202" width="180" height="30" as="geometry" />
        </mxCell>
        <mxCell id="jOgV_od5qk4-MP1on5pw-157" value="" style="shape=partialRectangle;connectable=0;fillColor=none;top=0;left=0;bottom=0;right=0;editable=1;overflow=hidden;whiteSpace=wrap;html=1;" vertex="1" parent="jOgV_od5qk4-MP1on5pw-156">
          <mxGeometry width="30" height="30" as="geometry">
            <mxRectangle width="30" height="30" as="alternateBounds" />
          </mxGeometry>
        </mxCell>
        <mxCell id="jOgV_od5qk4-MP1on5pw-158" value="&lt;span style=&quot;text-align: center;&quot;&gt;Address&lt;/span&gt;" style="shape=partialRectangle;connectable=0;fillColor=none;top=0;left=0;bottom=0;right=0;align=left;spacingLeft=6;overflow=hidden;whiteSpace=wrap;html=1;" vertex="1" parent="jOgV_od5qk4-MP1on5pw-156">
          <mxGeometry x="30" width="150" height="30" as="geometry">
            <mxRectangle width="150" height="30" as="alternateBounds" />
          </mxGeometry>
        </mxCell>
        <mxCell id="jOgV_od5qk4-MP1on5pw-165" value="&lt;span style=&quot;color: rgb(36, 41, 46); font-family: &amp;quot;Droid Sans Mono&amp;quot;, &amp;quot;monospace&amp;quot;, monospace; font-size: 13px; font-weight: 400; white-space-collapse: preserve;&quot;&gt;Product&lt;/span&gt;" style="shape=table;startSize=30;container=1;collapsible=1;childLayout=tableLayout;fixedRows=1;rowLines=0;fontStyle=1;align=center;resizeLast=1;html=1;" vertex="1" parent="1">
          <mxGeometry x="-742" y="28" width="180" height="180" as="geometry" />
        </mxCell>
        <mxCell id="jOgV_od5qk4-MP1on5pw-166" value="" style="shape=tableRow;horizontal=0;startSize=0;swimlaneHead=0;swimlaneBody=0;fillColor=none;collapsible=0;dropTarget=0;points=[[0,0.5],[1,0.5]];portConstraint=eastwest;top=0;left=0;right=0;bottom=1;" vertex="1" parent="jOgV_od5qk4-MP1on5pw-165">
          <mxGeometry y="30" width="180" height="30" as="geometry" />
        </mxCell>
        <mxCell id="jOgV_od5qk4-MP1on5pw-167" value="" style="shape=partialRectangle;connectable=0;fillColor=none;top=0;left=0;bottom=0;right=0;fontStyle=1;overflow=hidden;whiteSpace=wrap;html=1;" vertex="1" parent="jOgV_od5qk4-MP1on5pw-166">
          <mxGeometry width="30" height="30" as="geometry">
            <mxRectangle width="30" height="30" as="alternateBounds" />
          </mxGeometry>
        </mxCell>
        <mxCell id="jOgV_od5qk4-MP1on5pw-168" value="ID" style="shape=partialRectangle;connectable=0;fillColor=none;top=0;left=0;bottom=0;right=0;align=left;spacingLeft=6;fontStyle=5;overflow=hidden;whiteSpace=wrap;html=1;" vertex="1" parent="jOgV_od5qk4-MP1on5pw-166">
          <mxGeometry x="30" width="150" height="30" as="geometry">
            <mxRectangle width="150" height="30" as="alternateBounds" />
          </mxGeometry>
        </mxCell>
        <mxCell id="jOgV_od5qk4-MP1on5pw-169" value="" style="shape=tableRow;horizontal=0;startSize=0;swimlaneHead=0;swimlaneBody=0;fillColor=none;collapsible=0;dropTarget=0;points=[[0,0.5],[1,0.5]];portConstraint=eastwest;top=0;left=0;right=0;bottom=0;" vertex="1" parent="jOgV_od5qk4-MP1on5pw-165">
          <mxGeometry y="60" width="180" height="30" as="geometry" />
        </mxCell>
        <mxCell id="jOgV_od5qk4-MP1on5pw-170" value="" style="shape=partialRectangle;connectable=0;fillColor=none;top=0;left=0;bottom=0;right=0;editable=1;overflow=hidden;whiteSpace=wrap;html=1;" vertex="1" parent="jOgV_od5qk4-MP1on5pw-169">
          <mxGeometry width="30" height="30" as="geometry">
            <mxRectangle width="30" height="30" as="alternateBounds" />
          </mxGeometry>
        </mxCell>
        <mxCell id="jOgV_od5qk4-MP1on5pw-171" value="Name" style="shape=partialRectangle;connectable=0;fillColor=none;top=0;left=0;bottom=0;right=0;align=left;spacingLeft=6;overflow=hidden;whiteSpace=wrap;html=1;" vertex="1" parent="jOgV_od5qk4-MP1on5pw-169">
          <mxGeometry x="30" width="150" height="30" as="geometry">
            <mxRectangle width="150" height="30" as="alternateBounds" />
          </mxGeometry>
        </mxCell>
        <mxCell id="jOgV_od5qk4-MP1on5pw-172" value="" style="shape=tableRow;horizontal=0;startSize=0;swimlaneHead=0;swimlaneBody=0;fillColor=none;collapsible=0;dropTarget=0;points=[[0,0.5],[1,0.5]];portConstraint=eastwest;top=0;left=0;right=0;bottom=0;" vertex="1" parent="jOgV_od5qk4-MP1on5pw-165">
          <mxGeometry y="90" width="180" height="30" as="geometry" />
        </mxCell>
        <mxCell id="jOgV_od5qk4-MP1on5pw-173" value="" style="shape=partialRectangle;connectable=0;fillColor=none;top=0;left=0;bottom=0;right=0;editable=1;overflow=hidden;whiteSpace=wrap;html=1;" vertex="1" parent="jOgV_od5qk4-MP1on5pw-172">
          <mxGeometry width="30" height="30" as="geometry">
            <mxRectangle width="30" height="30" as="alternateBounds" />
          </mxGeometry>
        </mxCell>
        <mxCell id="jOgV_od5qk4-MP1on5pw-174" value="&lt;span style=&quot;text-align: center;&quot;&gt;Category ID&lt;/span&gt;" style="shape=partialRectangle;connectable=0;fillColor=none;top=0;left=0;bottom=0;right=0;align=left;spacingLeft=6;overflow=hidden;whiteSpace=wrap;html=1;" vertex="1" parent="jOgV_od5qk4-MP1on5pw-172">
          <mxGeometry x="30" width="150" height="30" as="geometry">
            <mxRectangle width="150" height="30" as="alternateBounds" />
          </mxGeometry>
        </mxCell>
        <mxCell id="jOgV_od5qk4-MP1on5pw-175" value="" style="shape=tableRow;horizontal=0;startSize=0;swimlaneHead=0;swimlaneBody=0;fillColor=none;collapsible=0;dropTarget=0;points=[[0,0.5],[1,0.5]];portConstraint=eastwest;top=0;left=0;right=0;bottom=0;" vertex="1" parent="jOgV_od5qk4-MP1on5pw-165">
          <mxGeometry y="120" width="180" height="30" as="geometry" />
        </mxCell>
        <mxCell id="jOgV_od5qk4-MP1on5pw-176" value="" style="shape=partialRectangle;connectable=0;fillColor=none;top=0;left=0;bottom=0;right=0;editable=1;overflow=hidden;whiteSpace=wrap;html=1;" vertex="1" parent="jOgV_od5qk4-MP1on5pw-175">
          <mxGeometry width="30" height="30" as="geometry">
            <mxRectangle width="30" height="30" as="alternateBounds" />
          </mxGeometry>
        </mxCell>
        <mxCell id="jOgV_od5qk4-MP1on5pw-177" value="&lt;span style=&quot;text-align: center;&quot;&gt;Unit Price&lt;/span&gt;" style="shape=partialRectangle;connectable=0;fillColor=none;top=0;left=0;bottom=0;right=0;align=left;spacingLeft=6;overflow=hidden;whiteSpace=wrap;html=1;" vertex="1" parent="jOgV_od5qk4-MP1on5pw-175">
          <mxGeometry x="30" width="150" height="30" as="geometry">
            <mxRectangle width="150" height="30" as="alternateBounds" />
          </mxGeometry>
        </mxCell>
        <mxCell id="jOgV_od5qk4-MP1on5pw-178" value="" style="shape=tableRow;horizontal=0;startSize=0;swimlaneHead=0;swimlaneBody=0;fillColor=none;collapsible=0;dropTarget=0;points=[[0,0.5],[1,0.5]];portConstraint=eastwest;top=0;left=0;right=0;bottom=0;" vertex="1" parent="jOgV_od5qk4-MP1on5pw-165">
          <mxGeometry y="150" width="180" height="30" as="geometry" />
        </mxCell>
        <mxCell id="jOgV_od5qk4-MP1on5pw-179" value="" style="shape=partialRectangle;connectable=0;fillColor=none;top=0;left=0;bottom=0;right=0;editable=1;overflow=hidden;whiteSpace=wrap;html=1;" vertex="1" parent="jOgV_od5qk4-MP1on5pw-178">
          <mxGeometry width="30" height="30" as="geometry">
            <mxRectangle width="30" height="30" as="alternateBounds" />
          </mxGeometry>
        </mxCell>
        <mxCell id="jOgV_od5qk4-MP1on5pw-180" value="&lt;span style=&quot;text-align: center;&quot;&gt;Discount&lt;/span&gt;" style="shape=partialRectangle;connectable=0;fillColor=none;top=0;left=0;bottom=0;right=0;align=left;spacingLeft=6;overflow=hidden;whiteSpace=wrap;html=1;" vertex="1" parent="jOgV_od5qk4-MP1on5pw-178">
          <mxGeometry x="30" width="150" height="30" as="geometry">
            <mxRectangle width="150" height="30" as="alternateBounds" />
          </mxGeometry>
        </mxCell>
        <mxCell id="jOgV_od5qk4-MP1on5pw-181" style="edgeStyle=orthogonalEdgeStyle;rounded=0;orthogonalLoop=1;jettySize=auto;html=1;exitX=0;exitY=0.5;exitDx=0;exitDy=0;entryX=0;entryY=0.5;entryDx=0;entryDy=0;" edge="1" parent="1" source="jOgV_od5qk4-MP1on5pw-144" target="jOgV_od5qk4-MP1on5pw-128">
          <mxGeometry relative="1" as="geometry" />
        </mxCell>
        <mxCell id="jOgV_od5qk4-MP1on5pw-183" style="edgeStyle=orthogonalEdgeStyle;rounded=0;orthogonalLoop=1;jettySize=auto;html=1;exitX=0;exitY=0.5;exitDx=0;exitDy=0;entryX=1;entryY=0.5;entryDx=0;entryDy=0;" edge="1" parent="1" source="jOgV_od5qk4-MP1on5pw-111" target="jOgV_od5qk4-MP1on5pw-47">
          <mxGeometry relative="1" as="geometry" />
        </mxCell>
        <mxCell id="jOgV_od5qk4-MP1on5pw-184" style="edgeStyle=orthogonalEdgeStyle;rounded=0;orthogonalLoop=1;jettySize=auto;html=1;exitX=0;exitY=0.5;exitDx=0;exitDy=0;entryX=1;entryY=0.5;entryDx=0;entryDy=0;" edge="1" parent="1" source="jOgV_od5qk4-MP1on5pw-172" target="jOgV_od5qk4-MP1on5pw-95">
          <mxGeometry relative="1" as="geometry" />
        </mxCell>
        <mxCell id="jOgV_od5qk4-MP1on5pw-185" style="edgeStyle=orthogonalEdgeStyle;rounded=0;orthogonalLoop=1;jettySize=auto;html=1;exitX=1;exitY=0.5;exitDx=0;exitDy=0;entryX=0;entryY=0.5;entryDx=0;entryDy=0;" edge="1" parent="1" source="jOgV_od5qk4-MP1on5pw-108" target="jOgV_od5qk4-MP1on5pw-128">
          <mxGeometry relative="1" as="geometry" />
        </mxCell>
        <mxCell id="jOgV_od5qk4-MP1on5pw-202" value="&lt;span style=&quot;color: rgb(36, 41, 46); font-family: &amp;quot;Droid Sans Mono&amp;quot;, &amp;quot;monospace&amp;quot;, monospace; font-size: 13px; font-weight: 400; white-space-collapse: preserve;&quot;&gt;ClassCourse&lt;/span&gt;" style="shape=table;startSize=30;container=1;collapsible=1;childLayout=tableLayout;fixedRows=1;rowLines=0;fontStyle=1;align=center;resizeLast=1;html=1;" vertex="1" parent="1">
          <mxGeometry x="2473" y="1463" width="180" height="90" as="geometry" />
        </mxCell>
        <mxCell id="jOgV_od5qk4-MP1on5pw-203" value="" style="shape=tableRow;horizontal=0;startSize=0;swimlaneHead=0;swimlaneBody=0;fillColor=none;collapsible=0;dropTarget=0;points=[[0,0.5],[1,0.5]];portConstraint=eastwest;top=0;left=0;right=0;bottom=1;" vertex="1" parent="jOgV_od5qk4-MP1on5pw-202">
          <mxGeometry y="30" width="180" height="30" as="geometry" />
        </mxCell>
        <mxCell id="jOgV_od5qk4-MP1on5pw-204" value="" style="shape=partialRectangle;connectable=0;fillColor=none;top=0;left=0;bottom=0;right=0;fontStyle=1;overflow=hidden;whiteSpace=wrap;html=1;" vertex="1" parent="jOgV_od5qk4-MP1on5pw-203">
          <mxGeometry width="30" height="30" as="geometry">
            <mxRectangle width="30" height="30" as="alternateBounds" />
          </mxGeometry>
        </mxCell>
        <mxCell id="jOgV_od5qk4-MP1on5pw-205" value="ClassID" style="shape=partialRectangle;connectable=0;fillColor=none;top=0;left=0;bottom=0;right=0;align=left;spacingLeft=6;fontStyle=5;overflow=hidden;whiteSpace=wrap;html=1;" vertex="1" parent="jOgV_od5qk4-MP1on5pw-203">
          <mxGeometry x="30" width="150" height="30" as="geometry">
            <mxRectangle width="150" height="30" as="alternateBounds" />
          </mxGeometry>
        </mxCell>
        <mxCell id="jOgV_od5qk4-MP1on5pw-287" value="" style="shape=tableRow;horizontal=0;startSize=0;swimlaneHead=0;swimlaneBody=0;fillColor=none;collapsible=0;dropTarget=0;points=[[0,0.5],[1,0.5]];portConstraint=eastwest;top=0;left=0;right=0;bottom=1;" vertex="1" parent="jOgV_od5qk4-MP1on5pw-202">
          <mxGeometry y="60" width="180" height="30" as="geometry" />
        </mxCell>
        <mxCell id="jOgV_od5qk4-MP1on5pw-288" value="" style="shape=partialRectangle;connectable=0;fillColor=none;top=0;left=0;bottom=0;right=0;fontStyle=1;overflow=hidden;whiteSpace=wrap;html=1;" vertex="1" parent="jOgV_od5qk4-MP1on5pw-287">
          <mxGeometry width="30" height="30" as="geometry">
            <mxRectangle width="30" height="30" as="alternateBounds" />
          </mxGeometry>
        </mxCell>
        <mxCell id="jOgV_od5qk4-MP1on5pw-289" value="CourseID" style="shape=partialRectangle;connectable=0;fillColor=none;top=0;left=0;bottom=0;right=0;align=left;spacingLeft=6;fontStyle=5;overflow=hidden;whiteSpace=wrap;html=1;" vertex="1" parent="jOgV_od5qk4-MP1on5pw-287">
          <mxGeometry x="30" width="150" height="30" as="geometry">
            <mxRectangle width="150" height="30" as="alternateBounds" />
          </mxGeometry>
        </mxCell>
        <mxCell id="jOgV_od5qk4-MP1on5pw-215" value="&lt;span style=&quot;color: rgb(36, 41, 46); font-family: &amp;quot;Droid Sans Mono&amp;quot;, &amp;quot;monospace&amp;quot;, monospace; font-size: 13px; font-weight: 400; white-space-collapse: preserve;&quot;&gt;Trainee&lt;/span&gt;" style="shape=table;startSize=30;container=1;collapsible=1;childLayout=tableLayout;fixedRows=1;rowLines=0;fontStyle=1;align=center;resizeLast=1;html=1;" vertex="1" parent="1">
          <mxGeometry x="2473" y="1130" width="180" height="120" as="geometry" />
        </mxCell>
        <mxCell id="jOgV_od5qk4-MP1on5pw-216" value="" style="shape=tableRow;horizontal=0;startSize=0;swimlaneHead=0;swimlaneBody=0;fillColor=none;collapsible=0;dropTarget=0;points=[[0,0.5],[1,0.5]];portConstraint=eastwest;top=0;left=0;right=0;bottom=1;" vertex="1" parent="jOgV_od5qk4-MP1on5pw-215">
          <mxGeometry y="30" width="180" height="30" as="geometry" />
        </mxCell>
        <mxCell id="jOgV_od5qk4-MP1on5pw-217" value="" style="shape=partialRectangle;connectable=0;fillColor=none;top=0;left=0;bottom=0;right=0;fontStyle=1;overflow=hidden;whiteSpace=wrap;html=1;" vertex="1" parent="jOgV_od5qk4-MP1on5pw-216">
          <mxGeometry width="30" height="30" as="geometry">
            <mxRectangle width="30" height="30" as="alternateBounds" />
          </mxGeometry>
        </mxCell>
        <mxCell id="jOgV_od5qk4-MP1on5pw-218" value="TraineeID" style="shape=partialRectangle;connectable=0;fillColor=none;top=0;left=0;bottom=0;right=0;align=left;spacingLeft=6;fontStyle=5;overflow=hidden;whiteSpace=wrap;html=1;" vertex="1" parent="jOgV_od5qk4-MP1on5pw-216">
          <mxGeometry x="30" width="150" height="30" as="geometry">
            <mxRectangle width="150" height="30" as="alternateBounds" />
          </mxGeometry>
        </mxCell>
        <mxCell id="jOgV_od5qk4-MP1on5pw-219" value="" style="shape=tableRow;horizontal=0;startSize=0;swimlaneHead=0;swimlaneBody=0;fillColor=none;collapsible=0;dropTarget=0;points=[[0,0.5],[1,0.5]];portConstraint=eastwest;top=0;left=0;right=0;bottom=0;" vertex="1" parent="jOgV_od5qk4-MP1on5pw-215">
          <mxGeometry y="60" width="180" height="30" as="geometry" />
        </mxCell>
        <mxCell id="jOgV_od5qk4-MP1on5pw-220" value="" style="shape=partialRectangle;connectable=0;fillColor=none;top=0;left=0;bottom=0;right=0;editable=1;overflow=hidden;whiteSpace=wrap;html=1;" vertex="1" parent="jOgV_od5qk4-MP1on5pw-219">
          <mxGeometry width="30" height="30" as="geometry">
            <mxRectangle width="30" height="30" as="alternateBounds" />
          </mxGeometry>
        </mxCell>
        <mxCell id="jOgV_od5qk4-MP1on5pw-221" value="&lt;span style=&quot;text-align: center;&quot;&gt;Email&lt;/span&gt;" style="shape=partialRectangle;connectable=0;fillColor=none;top=0;left=0;bottom=0;right=0;align=left;spacingLeft=6;overflow=hidden;whiteSpace=wrap;html=1;" vertex="1" parent="jOgV_od5qk4-MP1on5pw-219">
          <mxGeometry x="30" width="150" height="30" as="geometry">
            <mxRectangle width="150" height="30" as="alternateBounds" />
          </mxGeometry>
        </mxCell>
        <mxCell id="jOgV_od5qk4-MP1on5pw-222" value="" style="shape=tableRow;horizontal=0;startSize=0;swimlaneHead=0;swimlaneBody=0;fillColor=none;collapsible=0;dropTarget=0;points=[[0,0.5],[1,0.5]];portConstraint=eastwest;top=0;left=0;right=0;bottom=0;" vertex="1" parent="jOgV_od5qk4-MP1on5pw-215">
          <mxGeometry y="90" width="180" height="30" as="geometry" />
        </mxCell>
        <mxCell id="jOgV_od5qk4-MP1on5pw-223" value="" style="shape=partialRectangle;connectable=0;fillColor=none;top=0;left=0;bottom=0;right=0;editable=1;overflow=hidden;whiteSpace=wrap;html=1;" vertex="1" parent="jOgV_od5qk4-MP1on5pw-222">
          <mxGeometry width="30" height="30" as="geometry">
            <mxRectangle width="30" height="30" as="alternateBounds" />
          </mxGeometry>
        </mxCell>
        <mxCell id="jOgV_od5qk4-MP1on5pw-224" value="&lt;span style=&quot;text-align: center;&quot;&gt;PhoneNumber&lt;/span&gt;" style="shape=partialRectangle;connectable=0;fillColor=none;top=0;left=0;bottom=0;right=0;align=left;spacingLeft=6;overflow=hidden;whiteSpace=wrap;html=1;" vertex="1" parent="jOgV_od5qk4-MP1on5pw-222">
          <mxGeometry x="30" width="150" height="30" as="geometry">
            <mxRectangle width="150" height="30" as="alternateBounds" />
          </mxGeometry>
        </mxCell>
        <mxCell id="jOgV_od5qk4-MP1on5pw-234" value="&lt;span style=&quot;color: rgb(36, 41, 46); font-family: &amp;quot;Droid Sans Mono&amp;quot;, monospace, monospace; font-size: 13px; font-weight: 400; white-space-collapse: preserve;&quot;&gt;ETScore&lt;/span&gt;" style="shape=table;startSize=30;container=1;collapsible=1;childLayout=tableLayout;fixedRows=1;rowLines=0;fontStyle=1;align=center;resizeLast=1;html=1;" vertex="1" parent="1">
          <mxGeometry x="2955" y="1130" width="180" height="150" as="geometry" />
        </mxCell>
        <mxCell id="jOgV_od5qk4-MP1on5pw-235" value="" style="shape=tableRow;horizontal=0;startSize=0;swimlaneHead=0;swimlaneBody=0;fillColor=none;collapsible=0;dropTarget=0;points=[[0,0.5],[1,0.5]];portConstraint=eastwest;top=0;left=0;right=0;bottom=1;" vertex="1" parent="jOgV_od5qk4-MP1on5pw-234">
          <mxGeometry y="30" width="180" height="30" as="geometry" />
        </mxCell>
        <mxCell id="jOgV_od5qk4-MP1on5pw-236" value="" style="shape=partialRectangle;connectable=0;fillColor=none;top=0;left=0;bottom=0;right=0;fontStyle=1;overflow=hidden;whiteSpace=wrap;html=1;" vertex="1" parent="jOgV_od5qk4-MP1on5pw-235">
          <mxGeometry width="30" height="30" as="geometry">
            <mxRectangle width="30" height="30" as="alternateBounds" />
          </mxGeometry>
        </mxCell>
        <mxCell id="jOgV_od5qk4-MP1on5pw-237" value="TraineeID" style="shape=partialRectangle;connectable=0;fillColor=none;top=0;left=0;bottom=0;right=0;align=left;spacingLeft=6;fontStyle=5;overflow=hidden;whiteSpace=wrap;html=1;" vertex="1" parent="jOgV_od5qk4-MP1on5pw-235">
          <mxGeometry x="30" width="150" height="30" as="geometry">
            <mxRectangle width="150" height="30" as="alternateBounds" />
          </mxGeometry>
        </mxCell>
        <mxCell id="jOgV_od5qk4-MP1on5pw-238" value="" style="shape=tableRow;horizontal=0;startSize=0;swimlaneHead=0;swimlaneBody=0;fillColor=none;collapsible=0;dropTarget=0;points=[[0,0.5],[1,0.5]];portConstraint=eastwest;top=0;left=0;right=0;bottom=0;" vertex="1" parent="jOgV_od5qk4-MP1on5pw-234">
          <mxGeometry y="60" width="180" height="30" as="geometry" />
        </mxCell>
        <mxCell id="jOgV_od5qk4-MP1on5pw-239" value="" style="shape=partialRectangle;connectable=0;fillColor=none;top=0;left=0;bottom=0;right=0;editable=1;overflow=hidden;whiteSpace=wrap;html=1;" vertex="1" parent="jOgV_od5qk4-MP1on5pw-238">
          <mxGeometry width="30" height="30" as="geometry">
            <mxRectangle width="30" height="30" as="alternateBounds" />
          </mxGeometry>
        </mxCell>
        <mxCell id="jOgV_od5qk4-MP1on5pw-240" value="&lt;span style=&quot;text-align: center;&quot;&gt;EnglishScore&lt;/span&gt;" style="shape=partialRectangle;connectable=0;fillColor=none;top=0;left=0;bottom=0;right=0;align=left;spacingLeft=6;overflow=hidden;whiteSpace=wrap;html=1;" vertex="1" parent="jOgV_od5qk4-MP1on5pw-238">
          <mxGeometry x="30" width="150" height="30" as="geometry">
            <mxRectangle width="150" height="30" as="alternateBounds" />
          </mxGeometry>
        </mxCell>
        <mxCell id="jOgV_od5qk4-MP1on5pw-241" value="" style="shape=tableRow;horizontal=0;startSize=0;swimlaneHead=0;swimlaneBody=0;fillColor=none;collapsible=0;dropTarget=0;points=[[0,0.5],[1,0.5]];portConstraint=eastwest;top=0;left=0;right=0;bottom=0;" vertex="1" parent="jOgV_od5qk4-MP1on5pw-234">
          <mxGeometry y="90" width="180" height="30" as="geometry" />
        </mxCell>
        <mxCell id="jOgV_od5qk4-MP1on5pw-242" value="" style="shape=partialRectangle;connectable=0;fillColor=none;top=0;left=0;bottom=0;right=0;editable=1;overflow=hidden;whiteSpace=wrap;html=1;" vertex="1" parent="jOgV_od5qk4-MP1on5pw-241">
          <mxGeometry width="30" height="30" as="geometry">
            <mxRectangle width="30" height="30" as="alternateBounds" />
          </mxGeometry>
        </mxCell>
        <mxCell id="jOgV_od5qk4-MP1on5pw-243" value="&lt;span style=&quot;text-align: center;&quot;&gt;TechScore&lt;/span&gt;" style="shape=partialRectangle;connectable=0;fillColor=none;top=0;left=0;bottom=0;right=0;align=left;spacingLeft=6;overflow=hidden;whiteSpace=wrap;html=1;" vertex="1" parent="jOgV_od5qk4-MP1on5pw-241">
          <mxGeometry x="30" width="150" height="30" as="geometry">
            <mxRectangle width="150" height="30" as="alternateBounds" />
          </mxGeometry>
        </mxCell>
        <mxCell id="jOgV_od5qk4-MP1on5pw-244" value="" style="shape=tableRow;horizontal=0;startSize=0;swimlaneHead=0;swimlaneBody=0;fillColor=none;collapsible=0;dropTarget=0;points=[[0,0.5],[1,0.5]];portConstraint=eastwest;top=0;left=0;right=0;bottom=0;" vertex="1" parent="jOgV_od5qk4-MP1on5pw-234">
          <mxGeometry y="120" width="180" height="30" as="geometry" />
        </mxCell>
        <mxCell id="jOgV_od5qk4-MP1on5pw-245" value="" style="shape=partialRectangle;connectable=0;fillColor=none;top=0;left=0;bottom=0;right=0;editable=1;overflow=hidden;whiteSpace=wrap;html=1;" vertex="1" parent="jOgV_od5qk4-MP1on5pw-244">
          <mxGeometry width="30" height="30" as="geometry">
            <mxRectangle width="30" height="30" as="alternateBounds" />
          </mxGeometry>
        </mxCell>
        <mxCell id="jOgV_od5qk4-MP1on5pw-246" value="&lt;span style=&quot;text-align: center;&quot;&gt;InterviewScore&lt;/span&gt;" style="shape=partialRectangle;connectable=0;fillColor=none;top=0;left=0;bottom=0;right=0;align=left;spacingLeft=6;overflow=hidden;whiteSpace=wrap;html=1;" vertex="1" parent="jOgV_od5qk4-MP1on5pw-244">
          <mxGeometry x="30" width="150" height="30" as="geometry">
            <mxRectangle width="150" height="30" as="alternateBounds" />
          </mxGeometry>
        </mxCell>
        <mxCell id="jOgV_od5qk4-MP1on5pw-250" value="&lt;span style=&quot;color: rgb(36, 41, 46); font-family: &amp;quot;Droid Sans Mono&amp;quot;, &amp;quot;monospace&amp;quot;, monospace; font-size: 13px; font-weight: 400; white-space-collapse: preserve;&quot;&gt;Course&lt;/span&gt;" style="shape=table;startSize=30;container=1;collapsible=1;childLayout=tableLayout;fixedRows=1;rowLines=0;fontStyle=1;align=center;resizeLast=1;html=1;" vertex="1" parent="1">
          <mxGeometry x="2955" y="1463" width="180" height="161" as="geometry" />
        </mxCell>
        <mxCell id="jOgV_od5qk4-MP1on5pw-251" value="" style="shape=tableRow;horizontal=0;startSize=0;swimlaneHead=0;swimlaneBody=0;fillColor=none;collapsible=0;dropTarget=0;points=[[0,0.5],[1,0.5]];portConstraint=eastwest;top=0;left=0;right=0;bottom=1;" vertex="1" parent="jOgV_od5qk4-MP1on5pw-250">
          <mxGeometry y="30" width="180" height="41" as="geometry" />
        </mxCell>
        <mxCell id="jOgV_od5qk4-MP1on5pw-252" value="" style="shape=partialRectangle;connectable=0;fillColor=none;top=0;left=0;bottom=0;right=0;fontStyle=1;overflow=hidden;whiteSpace=wrap;html=1;" vertex="1" parent="jOgV_od5qk4-MP1on5pw-251">
          <mxGeometry width="30" height="41" as="geometry">
            <mxRectangle width="30" height="41" as="alternateBounds" />
          </mxGeometry>
        </mxCell>
        <mxCell id="jOgV_od5qk4-MP1on5pw-253" value="CourseCode" style="shape=partialRectangle;connectable=0;fillColor=none;top=0;left=0;bottom=0;right=0;align=left;spacingLeft=6;fontStyle=5;overflow=hidden;whiteSpace=wrap;html=1;" vertex="1" parent="jOgV_od5qk4-MP1on5pw-251">
          <mxGeometry x="30" width="150" height="41" as="geometry">
            <mxRectangle width="150" height="41" as="alternateBounds" />
          </mxGeometry>
        </mxCell>
        <mxCell id="jOgV_od5qk4-MP1on5pw-254" value="" style="shape=tableRow;horizontal=0;startSize=0;swimlaneHead=0;swimlaneBody=0;fillColor=none;collapsible=0;dropTarget=0;points=[[0,0.5],[1,0.5]];portConstraint=eastwest;top=0;left=0;right=0;bottom=0;" vertex="1" parent="jOgV_od5qk4-MP1on5pw-250">
          <mxGeometry y="71" width="180" height="30" as="geometry" />
        </mxCell>
        <mxCell id="jOgV_od5qk4-MP1on5pw-255" value="" style="shape=partialRectangle;connectable=0;fillColor=none;top=0;left=0;bottom=0;right=0;editable=1;overflow=hidden;whiteSpace=wrap;html=1;" vertex="1" parent="jOgV_od5qk4-MP1on5pw-254">
          <mxGeometry width="30" height="30" as="geometry">
            <mxRectangle width="30" height="30" as="alternateBounds" />
          </mxGeometry>
        </mxCell>
        <mxCell id="jOgV_od5qk4-MP1on5pw-256" value="&lt;span style=&quot;text-align: center;&quot;&gt;CourseName&lt;/span&gt;" style="shape=partialRectangle;connectable=0;fillColor=none;top=0;left=0;bottom=0;right=0;align=left;spacingLeft=6;overflow=hidden;whiteSpace=wrap;html=1;" vertex="1" parent="jOgV_od5qk4-MP1on5pw-254">
          <mxGeometry x="30" width="150" height="30" as="geometry">
            <mxRectangle width="150" height="30" as="alternateBounds" />
          </mxGeometry>
        </mxCell>
        <mxCell id="jOgV_od5qk4-MP1on5pw-257" value="" style="shape=tableRow;horizontal=0;startSize=0;swimlaneHead=0;swimlaneBody=0;fillColor=none;collapsible=0;dropTarget=0;points=[[0,0.5],[1,0.5]];portConstraint=eastwest;top=0;left=0;right=0;bottom=0;" vertex="1" parent="jOgV_od5qk4-MP1on5pw-250">
          <mxGeometry y="101" width="180" height="30" as="geometry" />
        </mxCell>
        <mxCell id="jOgV_od5qk4-MP1on5pw-258" value="" style="shape=partialRectangle;connectable=0;fillColor=none;top=0;left=0;bottom=0;right=0;editable=1;overflow=hidden;whiteSpace=wrap;html=1;" vertex="1" parent="jOgV_od5qk4-MP1on5pw-257">
          <mxGeometry width="30" height="30" as="geometry">
            <mxRectangle width="30" height="30" as="alternateBounds" />
          </mxGeometry>
        </mxCell>
        <mxCell id="jOgV_od5qk4-MP1on5pw-259" value="&lt;span style=&quot;text-align: center;&quot;&gt;Duration&lt;/span&gt;" style="shape=partialRectangle;connectable=0;fillColor=none;top=0;left=0;bottom=0;right=0;align=left;spacingLeft=6;overflow=hidden;whiteSpace=wrap;html=1;" vertex="1" parent="jOgV_od5qk4-MP1on5pw-257">
          <mxGeometry x="30" width="150" height="30" as="geometry">
            <mxRectangle width="150" height="30" as="alternateBounds" />
          </mxGeometry>
        </mxCell>
        <mxCell id="jOgV_od5qk4-MP1on5pw-260" value="" style="shape=tableRow;horizontal=0;startSize=0;swimlaneHead=0;swimlaneBody=0;fillColor=none;collapsible=0;dropTarget=0;points=[[0,0.5],[1,0.5]];portConstraint=eastwest;top=0;left=0;right=0;bottom=0;" vertex="1" parent="jOgV_od5qk4-MP1on5pw-250">
          <mxGeometry y="131" width="180" height="30" as="geometry" />
        </mxCell>
        <mxCell id="jOgV_od5qk4-MP1on5pw-261" value="" style="shape=partialRectangle;connectable=0;fillColor=none;top=0;left=0;bottom=0;right=0;editable=1;overflow=hidden;whiteSpace=wrap;html=1;" vertex="1" parent="jOgV_od5qk4-MP1on5pw-260">
          <mxGeometry width="30" height="30" as="geometry">
            <mxRectangle width="30" height="30" as="alternateBounds" />
          </mxGeometry>
        </mxCell>
        <mxCell id="jOgV_od5qk4-MP1on5pw-262" value="&lt;span style=&quot;text-align: center;&quot;&gt;CourseType&lt;/span&gt;" style="shape=partialRectangle;connectable=0;fillColor=none;top=0;left=0;bottom=0;right=0;align=left;spacingLeft=6;overflow=hidden;whiteSpace=wrap;html=1;" vertex="1" parent="jOgV_od5qk4-MP1on5pw-260">
          <mxGeometry x="30" width="150" height="30" as="geometry">
            <mxRectangle width="150" height="30" as="alternateBounds" />
          </mxGeometry>
        </mxCell>
        <mxCell id="jOgV_od5qk4-MP1on5pw-266" value="&lt;span style=&quot;color: rgb(36, 41, 46); font-family: &amp;quot;Droid Sans Mono&amp;quot;, &amp;quot;monospace&amp;quot;, monospace; font-size: 13px; font-weight: 400; white-space-collapse: preserve;&quot;&gt;Class&lt;/span&gt;" style="shape=table;startSize=30;container=1;collapsible=1;childLayout=tableLayout;fixedRows=1;rowLines=0;fontStyle=1;align=center;resizeLast=1;html=1;" vertex="1" parent="1">
          <mxGeometry x="2023" y="1463" width="180" height="180" as="geometry" />
        </mxCell>
        <mxCell id="jOgV_od5qk4-MP1on5pw-267" value="" style="shape=tableRow;horizontal=0;startSize=0;swimlaneHead=0;swimlaneBody=0;fillColor=none;collapsible=0;dropTarget=0;points=[[0,0.5],[1,0.5]];portConstraint=eastwest;top=0;left=0;right=0;bottom=1;" vertex="1" parent="jOgV_od5qk4-MP1on5pw-266">
          <mxGeometry y="30" width="180" height="30" as="geometry" />
        </mxCell>
        <mxCell id="jOgV_od5qk4-MP1on5pw-268" value="" style="shape=partialRectangle;connectable=0;fillColor=none;top=0;left=0;bottom=0;right=0;fontStyle=1;overflow=hidden;whiteSpace=wrap;html=1;" vertex="1" parent="jOgV_od5qk4-MP1on5pw-267">
          <mxGeometry width="30" height="30" as="geometry">
            <mxRectangle width="30" height="30" as="alternateBounds" />
          </mxGeometry>
        </mxCell>
        <mxCell id="jOgV_od5qk4-MP1on5pw-269" value="ClassID" style="shape=partialRectangle;connectable=0;fillColor=none;top=0;left=0;bottom=0;right=0;align=left;spacingLeft=6;fontStyle=5;overflow=hidden;whiteSpace=wrap;html=1;" vertex="1" parent="jOgV_od5qk4-MP1on5pw-267">
          <mxGeometry x="30" width="150" height="30" as="geometry">
            <mxRectangle width="150" height="30" as="alternateBounds" />
          </mxGeometry>
        </mxCell>
        <mxCell id="jOgV_od5qk4-MP1on5pw-270" value="" style="shape=tableRow;horizontal=0;startSize=0;swimlaneHead=0;swimlaneBody=0;fillColor=none;collapsible=0;dropTarget=0;points=[[0,0.5],[1,0.5]];portConstraint=eastwest;top=0;left=0;right=0;bottom=0;" vertex="1" parent="jOgV_od5qk4-MP1on5pw-266">
          <mxGeometry y="60" width="180" height="30" as="geometry" />
        </mxCell>
        <mxCell id="jOgV_od5qk4-MP1on5pw-271" value="" style="shape=partialRectangle;connectable=0;fillColor=none;top=0;left=0;bottom=0;right=0;editable=1;overflow=hidden;whiteSpace=wrap;html=1;" vertex="1" parent="jOgV_od5qk4-MP1on5pw-270">
          <mxGeometry width="30" height="30" as="geometry">
            <mxRectangle width="30" height="30" as="alternateBounds" />
          </mxGeometry>
        </mxCell>
        <mxCell id="jOgV_od5qk4-MP1on5pw-272" value="&lt;span style=&quot;text-align: center;&quot;&gt;ClassCode&lt;/span&gt;" style="shape=partialRectangle;connectable=0;fillColor=none;top=0;left=0;bottom=0;right=0;align=left;spacingLeft=6;overflow=hidden;whiteSpace=wrap;html=1;" vertex="1" parent="jOgV_od5qk4-MP1on5pw-270">
          <mxGeometry x="30" width="150" height="30" as="geometry">
            <mxRectangle width="150" height="30" as="alternateBounds" />
          </mxGeometry>
        </mxCell>
        <mxCell id="jOgV_od5qk4-MP1on5pw-273" value="" style="shape=tableRow;horizontal=0;startSize=0;swimlaneHead=0;swimlaneBody=0;fillColor=none;collapsible=0;dropTarget=0;points=[[0,0.5],[1,0.5]];portConstraint=eastwest;top=0;left=0;right=0;bottom=0;" vertex="1" parent="jOgV_od5qk4-MP1on5pw-266">
          <mxGeometry y="90" width="180" height="30" as="geometry" />
        </mxCell>
        <mxCell id="jOgV_od5qk4-MP1on5pw-274" value="" style="shape=partialRectangle;connectable=0;fillColor=none;top=0;left=0;bottom=0;right=0;editable=1;overflow=hidden;whiteSpace=wrap;html=1;" vertex="1" parent="jOgV_od5qk4-MP1on5pw-273">
          <mxGeometry width="30" height="30" as="geometry">
            <mxRectangle width="30" height="30" as="alternateBounds" />
          </mxGeometry>
        </mxCell>
        <mxCell id="jOgV_od5qk4-MP1on5pw-275" value="&lt;span style=&quot;text-align: center;&quot;&gt;StartDate&lt;/span&gt;" style="shape=partialRectangle;connectable=0;fillColor=none;top=0;left=0;bottom=0;right=0;align=left;spacingLeft=6;overflow=hidden;whiteSpace=wrap;html=1;" vertex="1" parent="jOgV_od5qk4-MP1on5pw-273">
          <mxGeometry x="30" width="150" height="30" as="geometry">
            <mxRectangle width="150" height="30" as="alternateBounds" />
          </mxGeometry>
        </mxCell>
        <mxCell id="jOgV_od5qk4-MP1on5pw-276" value="" style="shape=tableRow;horizontal=0;startSize=0;swimlaneHead=0;swimlaneBody=0;fillColor=none;collapsible=0;dropTarget=0;points=[[0,0.5],[1,0.5]];portConstraint=eastwest;top=0;left=0;right=0;bottom=0;" vertex="1" parent="jOgV_od5qk4-MP1on5pw-266">
          <mxGeometry y="120" width="180" height="30" as="geometry" />
        </mxCell>
        <mxCell id="jOgV_od5qk4-MP1on5pw-277" value="" style="shape=partialRectangle;connectable=0;fillColor=none;top=0;left=0;bottom=0;right=0;editable=1;overflow=hidden;whiteSpace=wrap;html=1;" vertex="1" parent="jOgV_od5qk4-MP1on5pw-276">
          <mxGeometry width="30" height="30" as="geometry">
            <mxRectangle width="30" height="30" as="alternateBounds" />
          </mxGeometry>
        </mxCell>
        <mxCell id="jOgV_od5qk4-MP1on5pw-278" value="&lt;span style=&quot;text-align: center;&quot;&gt;EndDate&lt;/span&gt;" style="shape=partialRectangle;connectable=0;fillColor=none;top=0;left=0;bottom=0;right=0;align=left;spacingLeft=6;overflow=hidden;whiteSpace=wrap;html=1;" vertex="1" parent="jOgV_od5qk4-MP1on5pw-276">
          <mxGeometry x="30" width="150" height="30" as="geometry">
            <mxRectangle width="150" height="30" as="alternateBounds" />
          </mxGeometry>
        </mxCell>
        <mxCell id="jOgV_od5qk4-MP1on5pw-279" value="" style="shape=tableRow;horizontal=0;startSize=0;swimlaneHead=0;swimlaneBody=0;fillColor=none;collapsible=0;dropTarget=0;points=[[0,0.5],[1,0.5]];portConstraint=eastwest;top=0;left=0;right=0;bottom=0;" vertex="1" parent="jOgV_od5qk4-MP1on5pw-266">
          <mxGeometry y="150" width="180" height="30" as="geometry" />
        </mxCell>
        <mxCell id="jOgV_od5qk4-MP1on5pw-280" value="" style="shape=partialRectangle;connectable=0;fillColor=none;top=0;left=0;bottom=0;right=0;editable=1;overflow=hidden;whiteSpace=wrap;html=1;" vertex="1" parent="jOgV_od5qk4-MP1on5pw-279">
          <mxGeometry width="30" height="30" as="geometry">
            <mxRectangle width="30" height="30" as="alternateBounds" />
          </mxGeometry>
        </mxCell>
        <mxCell id="jOgV_od5qk4-MP1on5pw-281" value="&lt;span style=&quot;text-align: center;&quot;&gt;ClassType&lt;/span&gt;" style="shape=partialRectangle;connectable=0;fillColor=none;top=0;left=0;bottom=0;right=0;align=left;spacingLeft=6;overflow=hidden;whiteSpace=wrap;html=1;" vertex="1" parent="jOgV_od5qk4-MP1on5pw-279">
          <mxGeometry x="30" width="150" height="30" as="geometry">
            <mxRectangle width="150" height="30" as="alternateBounds" />
          </mxGeometry>
        </mxCell>
        <mxCell id="jOgV_od5qk4-MP1on5pw-293" style="edgeStyle=orthogonalEdgeStyle;rounded=0;orthogonalLoop=1;jettySize=auto;html=1;exitX=0;exitY=0.5;exitDx=0;exitDy=0;entryX=1;entryY=0.5;entryDx=0;entryDy=0;" edge="1" parent="1" source="jOgV_od5qk4-MP1on5pw-290" target="jOgV_od5qk4-MP1on5pw-166">
          <mxGeometry relative="1" as="geometry" />
        </mxCell>
        <mxCell id="jOgV_od5qk4-MP1on5pw-294" value="&lt;span style=&quot;color: rgb(36, 41, 46); font-family: &amp;quot;Droid Sans Mono&amp;quot;, &amp;quot;monospace&amp;quot;, monospace; font-size: 13px; font-weight: 400; white-space-collapse: preserve;&quot;&gt;TraineeClass&lt;/span&gt;" style="shape=table;startSize=30;container=1;collapsible=1;childLayout=tableLayout;fixedRows=1;rowLines=0;fontStyle=1;align=center;resizeLast=1;html=1;" vertex="1" parent="1">
          <mxGeometry x="2023" y="1130" width="180" height="90" as="geometry" />
        </mxCell>
        <mxCell id="jOgV_od5qk4-MP1on5pw-295" value="" style="shape=tableRow;horizontal=0;startSize=0;swimlaneHead=0;swimlaneBody=0;fillColor=none;collapsible=0;dropTarget=0;points=[[0,0.5],[1,0.5]];portConstraint=eastwest;top=0;left=0;right=0;bottom=1;" vertex="1" parent="jOgV_od5qk4-MP1on5pw-294">
          <mxGeometry y="30" width="180" height="30" as="geometry" />
        </mxCell>
        <mxCell id="jOgV_od5qk4-MP1on5pw-296" value="" style="shape=partialRectangle;connectable=0;fillColor=none;top=0;left=0;bottom=0;right=0;fontStyle=1;overflow=hidden;whiteSpace=wrap;html=1;" vertex="1" parent="jOgV_od5qk4-MP1on5pw-295">
          <mxGeometry width="30" height="30" as="geometry">
            <mxRectangle width="30" height="30" as="alternateBounds" />
          </mxGeometry>
        </mxCell>
        <mxCell id="jOgV_od5qk4-MP1on5pw-297" value="TraineeID" style="shape=partialRectangle;connectable=0;fillColor=none;top=0;left=0;bottom=0;right=0;align=left;spacingLeft=6;fontStyle=5;overflow=hidden;whiteSpace=wrap;html=1;" vertex="1" parent="jOgV_od5qk4-MP1on5pw-295">
          <mxGeometry x="30" width="150" height="30" as="geometry">
            <mxRectangle width="150" height="30" as="alternateBounds" />
          </mxGeometry>
        </mxCell>
        <mxCell id="jOgV_od5qk4-MP1on5pw-298" value="" style="shape=tableRow;horizontal=0;startSize=0;swimlaneHead=0;swimlaneBody=0;fillColor=none;collapsible=0;dropTarget=0;points=[[0,0.5],[1,0.5]];portConstraint=eastwest;top=0;left=0;right=0;bottom=1;" vertex="1" parent="jOgV_od5qk4-MP1on5pw-294">
          <mxGeometry y="60" width="180" height="30" as="geometry" />
        </mxCell>
        <mxCell id="jOgV_od5qk4-MP1on5pw-299" value="" style="shape=partialRectangle;connectable=0;fillColor=none;top=0;left=0;bottom=0;right=0;fontStyle=1;overflow=hidden;whiteSpace=wrap;html=1;" vertex="1" parent="jOgV_od5qk4-MP1on5pw-298">
          <mxGeometry width="30" height="30" as="geometry">
            <mxRectangle width="30" height="30" as="alternateBounds" />
          </mxGeometry>
        </mxCell>
        <mxCell id="jOgV_od5qk4-MP1on5pw-300" value="ClassID" style="shape=partialRectangle;connectable=0;fillColor=none;top=0;left=0;bottom=0;right=0;align=left;spacingLeft=6;fontStyle=5;overflow=hidden;whiteSpace=wrap;html=1;" vertex="1" parent="jOgV_od5qk4-MP1on5pw-298">
          <mxGeometry x="30" width="150" height="30" as="geometry">
            <mxRectangle width="150" height="30" as="alternateBounds" />
          </mxGeometry>
        </mxCell>
        <mxCell id="jOgV_od5qk4-MP1on5pw-302" style="edgeStyle=orthogonalEdgeStyle;rounded=0;orthogonalLoop=1;jettySize=auto;html=1;exitX=0;exitY=0.5;exitDx=0;exitDy=0;entryX=1;entryY=0.5;entryDx=0;entryDy=0;" edge="1" parent="1" source="jOgV_od5qk4-MP1on5pw-203" target="jOgV_od5qk4-MP1on5pw-267">
          <mxGeometry relative="1" as="geometry" />
        </mxCell>
        <mxCell id="jOgV_od5qk4-MP1on5pw-303" style="edgeStyle=orthogonalEdgeStyle;rounded=0;orthogonalLoop=1;jettySize=auto;html=1;exitX=1;exitY=0.5;exitDx=0;exitDy=0;entryX=0;entryY=0.5;entryDx=0;entryDy=0;" edge="1" parent="1" source="jOgV_od5qk4-MP1on5pw-287" target="jOgV_od5qk4-MP1on5pw-251">
          <mxGeometry relative="1" as="geometry" />
        </mxCell>
        <mxCell id="jOgV_od5qk4-MP1on5pw-304" style="edgeStyle=orthogonalEdgeStyle;rounded=0;orthogonalLoop=1;jettySize=auto;html=1;exitX=1;exitY=0.5;exitDx=0;exitDy=0;entryX=0;entryY=0.5;entryDx=0;entryDy=0;" edge="1" parent="1" source="jOgV_od5qk4-MP1on5pw-216" target="jOgV_od5qk4-MP1on5pw-235">
          <mxGeometry relative="1" as="geometry" />
        </mxCell>
        <mxCell id="jOgV_od5qk4-MP1on5pw-305" style="edgeStyle=orthogonalEdgeStyle;rounded=0;orthogonalLoop=1;jettySize=auto;html=1;exitX=1;exitY=0.5;exitDx=0;exitDy=0;entryX=0;entryY=0.5;entryDx=0;entryDy=0;" edge="1" parent="1" source="jOgV_od5qk4-MP1on5pw-295" target="jOgV_od5qk4-MP1on5pw-216">
          <mxGeometry relative="1" as="geometry" />
        </mxCell>
        <mxCell id="jOgV_od5qk4-MP1on5pw-307" style="edgeStyle=orthogonalEdgeStyle;rounded=0;orthogonalLoop=1;jettySize=auto;html=1;exitX=0;exitY=0.5;exitDx=0;exitDy=0;entryX=0;entryY=0.5;entryDx=0;entryDy=0;" edge="1" parent="1" source="jOgV_od5qk4-MP1on5pw-298" target="jOgV_od5qk4-MP1on5pw-267">
          <mxGeometry relative="1" as="geometry" />
        </mxCell>
      </root>
    </mxGraphModel>
  </diagram>
</mxfile>
